<?xml version="1.0" standalone="no"?>
<!DOCTYPE svg PUBLIC "-//W3C//DTD SVG 20010904//EN"
 "http://www.w3.org/TR/2001/REC-SVG-20010904/DTD/svg10.dtd">
<svg version="1.0" xmlns="http://www.w3.org/2000/svg"
 width="512.000000pt" height="512.000000pt" viewBox="0 0 512.000000 512.000000"
 preserveAspectRatio="xMidYMid meet">
<metadata>
Created by potrace 1.14, written by Peter Selinger 2001-2017
</metadata>
<g transform="translate(0.000000,512.000000) scale(0.100000,-0.100000)"
fill="#000000" stroke="none">
<path d="M2470 5103 c-659 -28 -1247 -283 -1708 -742 -408 -406 -663 -930
-733 -1506 -16 -129 -16 -462 -1 -590 19 -153 70 -391 101 -469 l12 -30 31 40
c122 151 320 322 543 470 66 43 123 83 126 87 3 5 4 50 1 101 -9 176 38 454
110 644 96 258 224 450 430 648 219 211 477 353 773 427 255 64 586 63 844 -3
551 -140 1018 -572 1201 -1109 59 -173 80 -297 87 -502 l6 -185 151 -101 c198
-133 342 -249 453 -367 50 -53 93 -96 97 -96 15 0 81 308 96 450 16 143 16
431 1 570 -58 529 -295 1050 -650 1432 -395 426 -848 678 -1423 792 -131 26
-401 45 -548 39z m-479 -153 c29 -16 26 -73 -5 -89 -52 -28 -102 44 -56 81 26
21 34 22 61 8z m892 -67 c35 -5 37 -7 37 -45 l0 -39 -106 7 -105 7 3 -34 c3
-38 21 -46 104 -48 60 -1 80 -18 70 -57 l-7 -27 -90 8 -89 7 0 -40 c0 -39 0
-39 46 -46 26 -3 68 -6 94 -6 26 0 52 -6 58 -12 11 -14 5 -65 -8 -73 -12 -7
-281 22 -290 31 -8 9 13 314 25 363 6 24 6 24 113 17 59 -4 124 -10 145 -13z
m-849 -60 c19 -64 86 -337 86 -352 0 -32 -85 -44 -94 -13 -19 65 -86 332 -86
345 0 10 13 20 33 26 47 14 55 13 61 -6z m1190 -14 c19 -9 32 -34 62 -118 65
-185 55 -179 99 -58 l37 105 32 -10 c58 -20 59 -24 21 -128 -19 -52 -46 -132
-62 -177 -29 -88 -37 -95 -88 -71 -14 6 -28 21 -31 33 -12 47 -81 226 -89 228
-4 1 -21 -36 -37 -83 -16 -47 -34 -89 -39 -94 -10 -11 -89 10 -89 24 0 5 6 27
14 47 8 21 35 96 61 167 25 71 48 133 51 138 7 11 29 10 58 -3z m-1496 -135
c45 -30 65 -125 38 -186 -6 -13 4 -24 48 -48 31 -18 59 -36 62 -41 3 -5 -16
-18 -42 -29 l-46 -20 -49 30 c-57 35 -60 35 -100 15 l-29 -16 20 -39 c27 -53
26 -59 -15 -76 -49 -20 -54 -18 -70 21 -8 19 -44 94 -80 167 -36 73 -63 138
-61 144 4 12 106 64 176 91 42 16 113 10 148 -13z m2084 -136 c41 -12 120 -75
140 -111 9 -18 7 -24 -16 -44 -35 -29 -37 -29 -61 8 -39 59 -125 90 -133 48
-2 -9 20 -43 47 -76 81 -97 88 -148 29 -198 -34 -29 -98 -34 -152 -11 -66 28
-155 126 -138 153 8 11 46 33 59 33 4 0 19 -18 32 -39 23 -38 84 -81 114 -81
36 0 29 48 -14 85 -35 31 -79 106 -79 134 0 15 9 41 20 59 31 50 77 63 152 40z
m-2546 -174 c97 -118 106 -134 106 -196 -1 -124 -146 -215 -259 -161 -31 14
-203 204 -203 224 0 4 16 19 35 33 l35 27 24 -26 c13 -14 48 -55 78 -90 68
-82 103 -103 143 -84 54 26 70 92 32 131 -7 7 -35 40 -62 73 -28 33 -52 62
-55 65 -35 35 -35 42 0 71 19 16 38 29 41 29 3 0 42 -43 85 -96z m2991 -190
c59 -64 110 -120 112 -125 5 -15 -30 -49 -50 -49 -10 0 -30 16 -45 35 -14 19
-31 35 -38 35 -6 0 -59 -45 -118 -100 -58 -55 -111 -100 -116 -100 -6 0 -22
14 -37 32 l-27 32 111 109 c123 119 119 107 57 169 l-29 29 23 25 c13 13 29
24 36 24 7 0 61 -52 121 -116z m-3470 -134 c12 -10 24 -27 26 -37 3 -10 20
-74 37 -143 17 -69 35 -128 39 -132 4 -4 31 27 61 69 30 42 60 78 66 80 7 2
24 -6 38 -19 l27 -23 -87 -120 c-111 -155 -118 -162 -139 -145 -29 24 -49 82
-97 288 -12 52 -17 49 -83 -44 -26 -35 -50 -64 -55 -64 -5 0 -21 10 -35 23
l-27 23 66 89 c107 148 128 175 135 175 4 0 17 -9 28 -20z m3850 -146 c3 -8 2
-25 -1 -38 -13 -52 -100 -32 -94 22 6 49 77 61 95 16z m-109 -66 c11 -18 18
-36 16 -40 -3 -5 -35 -28 -72 -51 -37 -24 -106 -69 -154 -100 -48 -32 -92 -57
-97 -57 -15 0 -53 72 -43 82 23 23 299 197 314 197 9 1 25 -13 36 -31z m155
-270 c8 -24 36 -92 61 -153 25 -60 46 -112 46 -116 0 -4 -14 -12 -31 -19 -37
-16 -46 -8 -69 53 -20 51 -18 51 -169 -14 -63 -27 -122 -49 -131 -49 -16 0
-53 67 -45 81 3 4 62 30 132 58 71 28 134 55 142 60 11 7 9 17 -8 56 -26 59
-26 64 2 75 43 17 55 12 70 -32z m-3867 -89 c3 -6 -2 -28 -11 -50 -17 -36 -21
-39 -60 -39 l-43 0 -32 -81 -33 -80 32 -33 c30 -31 31 -33 18 -71 -8 -21 -18
-40 -23 -42 -5 -2 -76 64 -158 146 l-149 150 17 44 17 45 202 9 c111 5 205 10
209 11 4 1 10 -3 14 -9z m4038 -411 c18 -70 19 -69 -151 -93 -84 -12 -101 -17
-120 -40 -30 -35 -30 -79 2 -110 29 -30 35 -30 182 -9 63 9 116 14 120 10 3
-3 7 -25 7 -48 l1 -42 -55 -8 c-30 -4 -87 -13 -127 -19 -86 -14 -132 -7 -173
28 -47 39 -64 79 -64 154 0 58 4 72 28 103 34 45 72 61 189 79 139 21 154 21
161 -5z m-4210 -86 c6 -10 -28 -279 -36 -287 -3 -3 -72 4 -154 15 -82 11 -168
23 -192 26 -40 5 -42 7 -42 38 0 64 11 68 130 51 198 -28 188 -28 193 -8 3 10
8 45 12 78 9 91 12 95 50 95 19 0 36 -4 39 -8z"/>
<path d="M1568 4593 c-21 -9 -38 -21 -38 -29 0 -25 40 -104 52 -104 17 0 80
39 95 59 19 24 16 45 -10 69 -27 25 -47 26 -99 5z"/>
<path d="M486 3371 c-4 -5 15 -28 41 -50 l48 -41 18 40 c10 22 15 45 12 50 -8
13 -112 13 -119 1z"/>
<path d="M2420 4019 c-144 -14 -309 -53 -407 -95 -17 -8 -36 -14 -42 -14 -6 0
-11 -4 -11 -10 0 -5 -6 -10 -13 -10 -14 0 -133 -57 -152 -72 -5 -4 -39 -27
-75 -51 -36 -23 -72 -49 -81 -57 -9 -8 -52 -46 -96 -85 -70 -62 -190 -196
-218 -243 -5 -9 -24 -37 -41 -62 -40 -58 -111 -196 -120 -235 -4 -16 -10 -32
-14 -35 -11 -9 -63 -199 -74 -270 -2 -14 -6 -32 -9 -40 -3 -8 -7 -45 -9 -81
l-4 -65 36 24 c35 24 82 26 133 6 14 -5 17 0 17 38 0 40 3 46 42 71 23 15 48
27 55 27 7 0 13 5 13 10 0 6 6 10 13 10 6 0 84 36 172 81 148 74 165 80 222
81 99 1 172 -58 145 -117 -17 -37 -15 -41 11 -19 70 62 158 70 244 23 32 -18
78 -42 102 -55 24 -13 54 -35 66 -48 12 -13 61 -43 108 -65 59 -28 95 -52 113
-77 l28 -36 -17 -67 c-11 -43 -15 -82 -11 -112 12 -84 -41 -107 -166 -74 -79
21 -118 19 -221 -15 -112 -36 -222 -52 -354 -51 -98 0 -102 -1 -220 -51 -157
-66 -419 -194 -433 -211 -9 -10 1 -39 43 -125 119 -246 293 -448 515 -597 466
-314 1057 -350 1555 -97 212 108 382 255 552 477 43 56 127 208 159 284 l26
65 -24 17 c-25 20 -307 152 -428 202 -67 28 -88 31 -194 34 -138 3 -263 23
-366 58 -85 29 -126 31 -207 10 -72 -19 -114 -19 -139 -1 -15 12 -19 25 -17
72 1 32 -5 80 -14 106 -9 28 -12 59 -8 75 9 39 58 81 135 116 36 17 79 42 95
58 64 58 229 139 285 139 37 0 107 -28 140 -56 13 -11 15 -7 12 30 -5 56 28
95 87 103 40 6 51 16 31 28 -5 3 -10 11 -10 18 0 6 7 2 15 -9 12 -15 16 -16
23 -6 7 11 10 10 15 -3 4 -9 3 -13 -3 -10 -6 3 -10 1 -10 -4 0 -6 12 -11 28
-11 22 0 186 -75 397 -183 66 -33 85 -56 85 -99 0 -36 2 -39 23 -32 33 11 100
12 114 2 6 -5 14 -5 17 1 4 5 2 12 -4 16 -5 3 -10 24 -10 46 0 53 -20 181 -30
194 -5 6 -11 28 -15 50 -4 22 -11 45 -15 50 -4 6 -13 31 -20 58 -7 26 -16 47
-20 47 -4 0 -11 12 -14 28 -7 28 -54 125 -87 177 -10 17 -25 42 -34 58 -9 15
-22 27 -31 27 -9 0 -12 5 -8 11 3 6 3 14 -2 18 -5 3 -21 22 -35 41 -34 45
-170 183 -234 238 -80 68 -196 144 -212 138 -8 -3 -12 -2 -9 3 5 8 -118 74
-164 87 -14 4 -27 10 -30 14 -8 10 -113 40 -220 62 -170 35 -307 43 -470 27z
m-549 -207 c-7 -2 -18 1 -23 6 -8 8 -4 9 13 5 13 -4 18 -8 10 -11z m-221 -136
c0 -2 -8 -10 -17 -17 -16 -13 -17 -12 -4 4 13 16 21 21 21 13z m-233 -252 c-3
-3 -12 -4 -19 -1 -8 3 -5 6 6 6 11 1 17 -2 13 -5z m438 -442 c-3 -3 -11 0 -18
7 -9 10 -8 11 6 5 10 -3 15 -9 12 -12z m2112 -244 c-3 -8 -6 -5 -6 6 -1 11 2
17 5 13 3 -3 4 -12 1 -19z m-1427 -78 c0 -5 -5 -10 -11 -10 -5 0 -7 5 -4 10 3
6 8 10 11 10 2 0 4 -4 4 -10z"/>
<path d="M2094 2752 c-38 -26 -4 -94 36 -72 22 12 27 49 8 68 -14 14 -28 15
-44 4z"/>
<path d="M3008 2749 c-37 -21 -10 -86 30 -72 7 3 17 14 23 25 8 15 7 24 -7 39
-20 22 -22 22 -46 8z"/>
<path d="M2457 2456 c-3 -8 0 -19 6 -24 9 -8 12 -4 12 14 0 27 -10 32 -18 10z"/>
<path d="M2697 2440 c-3 -11 -2 -20 3 -20 12 0 21 28 11 35 -5 2 -11 -4 -14
-15z"/>
<path d="M1052 2438 c7 -22 61 -42 123 -46 44 -2 56 0 45 7 -8 6 -28 11 -45
11 -16 0 -50 9 -74 20 -51 23 -54 24 -49 8z"/>
<path d="M4065 2429 c-22 -10 -53 -19 -70 -19 -16 0 -37 -5 -45 -10 -11 -7 -4
-10 25 -10 66 0 142 27 134 47 -2 6 -22 2 -44 -8z"/>
<path d="M1540 2336 c0 -5 90 -56 99 -56 3 0 -10 10 -29 23 -35 24 -70 40 -70
33z"/>
<path d="M3583 2319 c-18 -12 -33 -23 -33 -25 0 -5 44 18 70 35 29 20 -5 10
-37 -10z"/>
<path d="M4144 1804 c-39 -92 -142 -261 -218 -358 -81 -103 -228 -246 -332
-322 -239 -177 -507 -286 -799 -325 -138 -18 -456 -7 -575 20 -158 36 -289 82
-415 145 -194 98 -283 164 -450 331 -166 165 -237 262 -328 445 -29 58 -53
107 -54 109 -6 10 -94 -62 -178 -144 -175 -172 -259 -314 -306 -519 l-20 -88
42 -57 c232 -310 533 -566 874 -742 284 -147 560 -232 880 -270 563 -67 1125
56 1620 354 263 158 515 387 707 642 81 107 96 133 92 154 -43 186 -146 366
-293 511 -64 63 -203 180 -213 180 -3 0 -18 -30 -34 -66z m-364 -984 c0 -21 9
-39 28 -55 29 -25 30 -23 -23 -40 -9 -3 -22 -19 -29 -36 l-13 -31 -20 26 c-13
16 -31 26 -46 26 -34 0 -43 17 -22 40 12 13 15 27 9 56 -5 30 -4 36 7 32 43
-16 57 -17 75 -3 28 21 34 19 34 -15z m-2350 -17 c0 -15 11 -39 26 -54 l26
-28 -35 -15 c-24 -10 -38 -23 -43 -40 -8 -33 -17 -33 -38 -1 -10 15 -26 25
-41 25 -32 0 -41 17 -20 40 12 13 15 27 11 45 -9 36 0 46 30 35 19 -8 31 -6
47 5 30 21 37 19 37 -12z m1941 -90 c9 -22 7 -41 -9 -88 l-20 -60 39 -7 c56
-10 73 -22 93 -67 27 -59 16 -101 -39 -149 -48 -43 -105 -62 -178 -62 -49 0
-56 8 -48 55 5 25 11 30 38 31 63 3 100 15 122 38 19 20 21 28 11 46 -12 22
-22 23 -104 8 -30 -5 -43 41 -28 99 7 25 11 47 9 49 -2 2 -30 -5 -62 -16 -32
-11 -64 -20 -71 -20 -13 0 -38 59 -29 68 6 7 247 101 258 102 4 0 12 -12 18
-27z m-1486 -13 c72 -34 95 -64 95 -125 0 -73 -34 -108 -152 -155 -31 -13 -55
-27 -52 -31 2 -4 28 -15 57 -24 69 -23 81 -34 68 -67 -5 -14 -15 -29 -21 -33
-6 -4 -72 17 -145 46 -117 45 -135 55 -135 74 0 31 22 46 139 95 58 24 113 52
123 62 44 44 -1 95 -76 85 -39 -6 -45 -4 -64 23 -28 38 -28 46 6 58 44 17 114
13 157 -8z m555 -135 c108 -56 123 -250 26 -351 -82 -85 -213 -66 -267 38 -46
88 -17 250 53 300 55 39 128 44 188 13z m459 -52 c51 -352 52 -333 -20 -333
l-37 0 -16 118 c-30 210 -25 197 -71 197 -39 0 -40 1 -43 37 -3 32 0 38 20 42
32 7 76 13 119 15 l37 1 11 -77z"/>
<path d="M2327 489 c-48 -28 -64 -164 -26 -213 31 -40 79 -34 103 13 58 110 4
247 -77 200z"/>
</g>
</svg>
