<svg width="154" height="92" viewBox="0 0 154 92" fill="none" xmlns="http://www.w3.org/2000/svg">
<path d="M38.9354 63C48.9943 54.2958 63.2122 45.5534 82.9727 38.172C89.0136 38.6362 103.493 38.3948 113.084 33.7159C113.92 33.2518 116.374 32.6019 119.496 33.7159C123.4 35.1085 127.303 36.501 129.812 33.7159C130.091 32.6948 130.37 30.0954 129.255 27.8674V26.7533C130.277 25.6393 131.708 22.4644 129.255 18.6767C127.582 17.5627 123.456 15.1119 120.333 14.2206C117.359 11.4356 110.296 5.58689 104.162 4.47292C102.872 4.23852 98.5859 5.86543 97.1919 6.70095C96.9699 6.83402 96.6903 7.01025 96.3578 7.21984C93.8938 8.77301 88.5234 12.1582 82.1363 13.3851C81.2999 13.4779 80.0731 13.3851 81.8575 12.2711C82.4928 11.9826 83.3243 11.6726 84.2573 11.3248C87.8285 9.99353 92.8871 8.10777 94.125 4.75142C95.9318 -0.147252 89.3756 -0.0336255 86.8436 0.0102565C86.6405 0.0137762 86.4633 0.0168471 86.3184 0.0168471C85.2961 0.109687 82.5266 0.685273 79.627 2.2449C78.7235 2.73087 77.1271 3.49373 75.222 4.40407C69.4845 7.14567 60.9478 11.2248 60.1105 13.1066C59.2184 15.1118 60.4823 16.5415 61.2258 17.0056C61.9693 17.4698 61.5046 18.9552 60.1105 18.3981C59.9201 18.322 59.6874 18.208 59.4152 18.0745C58.3465 17.5504 56.6675 16.7271 54.5344 16.7271C51.8579 16.7271 49.33 19.3265 48.4007 20.6262L38.3636 30.9308C30.5489 35.0635 12.0569 47.2092 0 63H38.9354Z" fill="white"/>
<path d="M76.656 66.464C76.016 66.304 75.496 65.968 75.096 65.456C74.712 64.96 74.4 64.36 74.16 63.656C74.144 63.448 74.136 63.16 74.136 62.792C74.152 62.424 74.176 62.08 74.208 61.76C74.24 61.44 74.272 61.256 74.304 61.208C74.352 61.176 74.376 61.08 74.376 60.92C74.36 60.856 74.368 60.752 74.4 60.608C74.448 60.448 74.496 60.288 74.544 60.128C74.624 59.936 74.664 59.784 74.664 59.672C74.664 59.544 74.656 59.448 74.64 59.384C74.64 59.384 74.664 59.336 74.712 59.24C74.76 59.128 74.816 59.04 74.88 58.976C74.976 58.88 75.016 58.784 75 58.688C75 58.592 75 58.544 75 58.544C74.984 58.48 75 58.392 75.048 58.28C75.096 58.168 75.144 58.08 75.192 58.016C75.224 57.984 75.264 57.92 75.312 57.824C75.376 57.712 75.408 57.656 75.408 57.656C75.408 57.608 75.44 57.48 75.504 57.272C75.584 57.064 75.672 56.84 75.768 56.6C75.864 56.344 75.952 56.112 76.032 55.904C76.128 55.696 76.2 55.56 76.248 55.496V55.448C76.312 55.288 76.4 55.12 76.512 54.944C76.528 54.864 76.568 54.736 76.632 54.56C76.696 54.368 76.768 54.184 76.848 54.008C77.024 53.624 77.24 53.192 77.496 52.712C77.768 52.216 78.056 51.728 78.36 51.248C78.664 50.752 78.952 50.312 79.224 49.928C79.512 49.528 79.76 49.232 79.968 49.04C80.24 48.736 80.512 48.52 80.784 48.392C81.072 48.248 81.336 48.296 81.576 48.536C81.688 48.648 81.784 48.816 81.864 49.04C81.944 49.248 81.976 49.448 81.96 49.64C81.96 49.816 81.896 49.912 81.768 49.928C81.656 49.992 81.504 50.176 81.312 50.48C81.12 50.768 80.904 51.112 80.664 51.512C80.44 51.912 80.216 52.328 79.992 52.76C79.768 53.176 79.56 53.552 79.368 53.888C79.16 54.352 78.968 54.76 78.792 55.112C78.616 55.448 78.528 55.616 78.528 55.616C78.512 55.664 78.496 55.704 78.48 55.736C78.464 55.768 78.448 55.8 78.432 55.832C78.192 56.328 77.992 56.784 77.832 57.2C77.672 57.6 77.512 58.024 77.352 58.472C77.256 58.584 77.2 58.696 77.184 58.808C77.168 58.92 77.16 58.976 77.16 58.976C77.128 58.96 77.104 59 77.088 59.096C77.072 59.176 77.04 59.272 76.992 59.384C76.912 59.448 76.864 59.552 76.848 59.696C76.832 59.824 76.824 59.952 76.824 60.08C76.712 60.368 76.608 60.72 76.512 61.136C76.416 61.536 76.344 61.928 76.296 62.312C76.264 62.68 76.256 62.968 76.272 63.176C76.304 63.448 76.376 63.68 76.488 63.872C76.616 64.048 76.792 64.192 77.016 64.304C77.192 64.384 77.352 64.456 77.496 64.52C77.64 64.568 77.768 64.592 77.88 64.592C78.008 64.608 78.168 64.608 78.36 64.592C78.568 64.56 78.848 64.512 79.2 64.448H79.176C79.384 64.416 79.6 64.376 79.824 64.328C80.064 64.264 80.288 64.208 80.496 64.16C80.688 64.128 80.872 64.096 81.048 64.064C81.224 64.016 81.36 63.976 81.456 63.944C81.808 63.848 82.088 63.768 82.296 63.704C82.52 63.64 82.672 63.64 82.752 63.704C82.832 63.768 82.92 63.888 83.016 64.064C83.112 64.24 83.136 64.4 83.088 64.544C83.056 64.624 82.896 64.784 82.608 65.024C82.32 65.28 81.992 65.528 81.624 65.768C81.256 66.024 80.92 66.2 80.616 66.296C80.296 66.44 79.864 66.536 79.32 66.584C78.792 66.648 78.28 66.664 77.784 66.632C77.288 66.6 76.912 66.544 76.656 66.464Z" fill="white"/>
<path d="M85.1947 64.496C85.1307 64.368 84.9867 64.24 84.7627 64.112C84.5547 63.984 84.4508 63.888 84.4508 63.824C84.4508 63.76 84.4107 63.664 84.3307 63.536C84.2667 63.392 84.2027 63.288 84.1387 63.224C84.0587 63.128 84.0827 62.896 84.2107 62.528C84.3387 62.144 84.5308 61.68 84.7868 61.136C85.0428 60.592 85.3227 60.04 85.6267 59.48C85.7547 59.352 85.8827 59.184 86.0107 58.976C86.1387 58.768 86.2348 58.632 86.2988 58.568C86.2988 58.504 86.3228 58.448 86.3708 58.4C86.4188 58.336 86.4747 58.304 86.5387 58.304L86.7308 57.92C86.7628 57.856 86.8588 57.728 87.0188 57.536C87.1948 57.344 87.4028 57.136 87.6428 56.912C87.8828 56.672 88.1227 56.448 88.3627 56.24C88.6187 56.032 88.8267 55.88 88.9867 55.784C89.3227 55.56 89.6668 55.456 90.0188 55.472C90.3868 55.488 90.6988 55.6 90.9548 55.808C91.0027 55.856 91.1067 55.952 91.2667 56.096C91.4427 56.24 91.6348 56.4 91.8428 56.576C92.0668 56.752 92.2587 56.912 92.4187 57.056L93.3067 57.848L92.8988 59.048C92.6908 59.688 92.6348 60.248 92.7308 60.728C92.8268 61.208 92.9788 61.624 93.1868 61.976C93.2668 62.152 93.3707 62.288 93.4987 62.384C93.6427 62.48 93.8268 62.544 94.0508 62.576C94.1788 62.592 94.2988 62.64 94.4108 62.72C94.5228 62.8 94.5788 62.928 94.5788 63.104C94.5788 63.488 94.5067 63.768 94.3627 63.944C94.2347 64.104 94.0907 64.2 93.9307 64.232C93.4027 64.296 92.8987 64.24 92.4187 64.064C91.9387 63.888 91.5067 63.432 91.1227 62.696C91.0587 62.6 90.9707 62.424 90.8587 62.168C90.7627 61.896 90.7067 61.72 90.6908 61.64C90.6267 61.72 90.5388 61.824 90.4268 61.952C90.3308 62.064 90.2347 62.168 90.1387 62.264C89.0027 63.416 88.0267 64.168 87.2107 64.52C86.4107 64.856 85.7387 64.848 85.1947 64.496ZM86.5147 62.504C86.6267 62.52 86.8027 62.464 87.0427 62.336C87.2827 62.192 87.6027 61.96 88.0027 61.64C88.5467 61.176 88.9947 60.792 89.3467 60.488C89.6987 60.184 90.0428 59.792 90.3788 59.312L90.9068 58.448C90.7468 58.08 90.6027 57.84 90.4747 57.728C90.3467 57.616 90.2188 57.56 90.0908 57.56C89.8828 57.56 89.6347 57.696 89.3467 57.968C89.0587 58.224 88.7307 58.608 88.3627 59.12C88.0107 59.616 87.6108 60.24 87.1628 60.992C86.9548 61.344 86.7947 61.688 86.6827 62.024C86.5707 62.344 86.5147 62.504 86.5147 62.504Z" fill="white"/>
<path d="M96.2897 64.736C95.6817 64.816 95.2177 64.856 94.8977 64.856C94.5937 64.856 94.3617 64.824 94.2017 64.76C94.0417 64.696 93.8897 64.608 93.7457 64.496C93.5857 64.384 93.4977 64.16 93.4817 63.824C93.4657 63.472 93.7057 63.04 94.2017 62.528C94.5057 62.16 94.8177 61.816 95.1377 61.496C95.4577 61.16 95.7457 60.888 96.0017 60.68C96.1137 60.584 96.2257 60.496 96.3377 60.416C96.4657 60.336 96.6737 60.2 96.9617 60.008C97.2497 59.8 97.7057 59.488 98.3297 59.072C98.6337 58.832 98.8497 58.664 98.9777 58.568C99.1057 58.472 99.2097 58.4 99.2897 58.352C99.3697 58.288 99.4737 58.208 99.6017 58.112C99.4897 58.096 99.2737 58.072 98.9537 58.04C98.6497 57.992 98.3377 57.984 98.0177 58.016C97.5697 58.016 97.3137 58.016 97.2497 58.016C97.1857 58 97.0897 57.976 96.9617 57.944H96.6017C96.5217 57.944 96.3777 57.888 96.1697 57.776C95.9777 57.664 95.7937 57.536 95.6177 57.392C95.4577 57.232 95.3697 57.096 95.3537 56.984C95.3537 56.984 95.4017 56.928 95.4977 56.816C95.5937 56.704 95.6737 56.616 95.7377 56.552C95.8657 56.472 95.9617 56.408 96.0257 56.36C96.1057 56.312 96.1777 56.32 96.2417 56.384C96.2417 56.384 96.4417 56.376 96.8417 56.36C97.2417 56.328 97.6337 56.304 98.0177 56.288C98.9457 56.304 99.6257 56.336 100.058 56.384C100.506 56.416 100.834 56.48 101.042 56.576C101.266 56.672 101.482 56.816 101.69 57.008C101.946 57.264 102.114 57.552 102.194 57.872C102.274 58.192 102.226 58.448 102.05 58.64C101.986 58.704 101.922 58.776 101.858 58.856C101.81 58.92 101.762 58.952 101.714 58.952C101.714 58.952 101.602 59.024 101.378 59.168C101.154 59.312 100.882 59.488 100.562 59.696C100.258 59.904 99.9537 60.096 99.6497 60.272C99.3617 60.448 99.1857 60.576 99.1217 60.656C99.0097 60.72 98.8737 60.808 98.7137 60.92C98.5537 61.016 98.4417 61.096 98.3777 61.16C98.3297 61.224 98.2177 61.336 98.0417 61.496C97.8817 61.656 97.7057 61.8 97.5137 61.928C97.3697 62.056 97.2097 62.2 97.0337 62.36C96.8737 62.52 96.7297 62.664 96.6017 62.792C96.4897 62.904 96.4337 62.96 96.4337 62.96C96.4337 62.96 96.5537 62.944 96.7937 62.912C97.0337 62.864 97.3537 62.824 97.7537 62.792C98.1537 62.744 98.5857 62.736 99.0497 62.768C99.8017 62.752 100.394 62.736 100.826 62.72C101.274 62.688 101.61 62.68 101.834 62.696C102.074 62.696 102.258 62.728 102.386 62.792C102.498 62.824 102.578 62.936 102.626 63.128C102.69 63.32 102.73 63.512 102.746 63.704C102.762 63.896 102.754 64.016 102.722 64.064C102.658 64.064 102.41 64.088 101.978 64.136C101.546 64.168 101.05 64.2 100.49 64.232C99.7537 64.296 99.0417 64.376 98.3537 64.472C97.6657 64.568 96.9777 64.656 96.2897 64.736Z" fill="white"/>
<path d="M77.736 90.936C77.24 90.904 76.744 90.72 76.248 90.384C75.752 90.064 75.296 89.76 74.88 89.472C74.608 89.2 74.4 88.912 74.256 88.608C74.112 88.288 73.992 87.872 73.896 87.36C73.832 87.056 73.832 86.656 73.896 86.16C73.96 85.664 74.064 85.168 74.208 84.672C74.352 84.16 74.488 83.76 74.616 83.472C74.808 83.024 75.048 82.544 75.336 82.032C75.64 81.504 75.936 81.008 76.224 80.544C76.528 80.064 76.768 79.68 76.944 79.392C77.056 79.28 77.104 79.224 77.088 79.224C77.088 79.208 77.088 79.2 77.088 79.2C77.088 79.12 77.168 78.92 77.328 78.6C77.504 78.264 77.656 77.968 77.784 77.712C78.024 77.456 78.16 77.248 78.192 77.088C78.224 76.928 78.2 76.8 78.12 76.704C78.088 76.64 78.152 76.504 78.312 76.296C78.488 76.088 78.728 75.856 79.032 75.6C79.336 75.328 79.672 75.088 80.04 74.88C80.424 74.576 80.792 74.416 81.144 74.4C81.512 74.368 81.728 74.44 81.792 74.616C81.792 74.664 81.88 74.68 82.056 74.664C82.248 74.632 82.464 74.592 82.704 74.544C82.96 74.48 83.184 74.432 83.376 74.4C83.456 74.304 83.64 74.232 83.928 74.184C84.232 74.12 84.584 74.064 84.984 74.016C85.192 74.032 85.424 74.04 85.68 74.04C85.936 74.024 86.16 74.008 86.352 73.992C86.56 73.976 86.664 73.968 86.664 73.968C86.776 73.936 86.936 74.008 87.144 74.184C87.368 74.344 87.544 74.568 87.672 74.856C87.784 75.144 87.688 75.392 87.384 75.6C87.08 75.808 86.6 75.952 85.944 76.032C85.464 76.096 85.088 76.152 84.816 76.2C84.56 76.232 84.28 76.28 83.976 76.344C83.688 76.392 83.264 76.48 82.704 76.608C82.304 76.688 81.968 76.752 81.696 76.8C81.424 76.848 81.184 76.944 80.976 77.088C80.784 77.232 80.568 77.488 80.328 77.856C80.216 77.936 80.072 78.144 79.896 78.48C79.72 78.816 79.544 79.152 79.368 79.488C78.92 80.112 78.584 80.576 78.36 80.88C78.152 81.168 78.08 81.352 78.144 81.432C78.144 81.432 78.256 81.456 78.48 81.504C78.704 81.552 78.848 81.576 78.912 81.576C79.072 81.496 79.264 81.44 79.488 81.408C79.728 81.376 79.92 81.344 80.064 81.312C81.056 81.056 81.784 80.872 82.248 80.76C82.728 80.632 83.064 80.544 83.256 80.496C83.464 80.448 83.648 80.416 83.808 80.4C84.032 80.224 84.256 80.24 84.48 80.448C84.72 80.64 84.888 80.872 84.984 81.144C85.096 81.464 85.096 81.712 84.984 81.888C84.872 82.064 84.624 82.208 84.24 82.32C83.872 82.432 83.344 82.568 82.656 82.728C81.968 82.872 81.104 83.088 80.064 83.376C79.184 83.632 78.472 83.784 77.928 83.832C77.384 83.88 77.128 83.744 77.16 83.424C77.048 83.36 76.92 83.424 76.776 83.616C76.648 83.792 76.528 84.04 76.416 84.36C76.304 84.68 76.2 85.024 76.104 85.392C76.024 85.76 75.976 86.104 75.96 86.424C75.944 86.744 75.968 86.992 76.032 87.168C76.16 87.536 76.36 87.856 76.632 88.128C76.92 88.384 77.336 88.592 77.88 88.752C78.2 88.768 78.512 88.792 78.816 88.824C79.12 88.856 79.464 88.792 79.848 88.632C80.792 88.472 81.448 88.304 81.816 88.128C82.184 87.952 82.408 87.832 82.488 87.768C82.616 87.704 82.696 87.64 82.728 87.576C82.776 87.512 82.84 87.48 82.92 87.48C82.872 87.56 82.888 87.56 82.968 87.48C83.048 87.4 83.176 87.288 83.352 87.144C83.688 86.856 84.024 86.68 84.36 86.616C84.696 86.552 84.976 86.552 85.2 86.616C85.424 86.664 85.544 86.728 85.56 86.808C85.656 86.968 85.608 87.224 85.416 87.576C85.224 87.912 84.928 88.272 84.528 88.656C84.144 89.04 83.688 89.384 83.16 89.688C82.312 90.136 81.392 90.448 80.4 90.624C79.408 90.816 78.52 90.92 77.736 90.936Z" fill="white"/>
<path d="M95.4523 89.424C95.1003 89.392 94.8043 89.32 94.5643 89.208C94.3403 89.08 94.1563 88.832 94.0123 88.464C93.9483 88.208 93.9163 87.944 93.9163 87.672C93.9323 87.384 93.9563 87.112 93.9883 86.856C94.0203 86.584 94.0363 86.352 94.0363 86.16C94.0363 86.128 94.0363 86.064 94.0363 85.968C94.0363 85.872 94.0363 85.784 94.0363 85.704C94.0043 85.464 93.9403 85.32 93.8443 85.272C93.7643 85.208 93.6203 85.216 93.4123 85.296C93.0763 85.456 92.7083 85.672 92.3083 85.944C91.9243 86.2 91.5163 86.504 91.0843 86.856C90.6683 87.192 90.2363 87.552 89.7883 87.936C89.4363 88.32 89.1723 88.632 88.9963 88.872C88.8363 89.112 88.6683 89.232 88.4923 89.232C88.3643 89.296 88.2283 89.28 88.0843 89.184C87.9403 89.088 87.7883 88.976 87.6283 88.848C87.5163 88.72 87.3803 88.56 87.2203 88.368C87.0763 88.16 86.9883 88.024 86.9563 87.96C86.9563 87.704 86.9723 87.472 87.0043 87.264C87.0523 87.056 87.1163 86.84 87.1963 86.616C87.2923 86.392 87.4043 86.136 87.5323 85.848C87.5963 85.736 87.6523 85.624 87.7003 85.512C87.7643 85.384 87.8363 85.248 87.9163 85.104C87.9803 84.88 88.0683 84.624 88.1803 84.336C88.3083 84.048 88.4283 83.776 88.5403 83.52C88.7163 83.104 88.8523 82.744 88.9483 82.44C89.0443 82.136 89.1243 81.808 89.1883 81.456C89.1723 81.424 89.1803 81.376 89.2123 81.312C89.2443 81.248 89.2923 81.208 89.3563 81.192H89.4043C89.5163 81.112 89.7243 81.104 90.0283 81.168C90.3483 81.216 90.5883 81.304 90.7483 81.432C91.0843 81.72 91.2443 82.096 91.2283 82.56C91.2123 83.024 90.9723 83.632 90.5083 84.384C90.3963 84.64 90.2763 84.88 90.1483 85.104C90.0363 85.312 89.9803 85.456 89.9803 85.536C89.9803 85.536 90.0443 85.488 90.1723 85.392C90.3003 85.296 90.4523 85.184 90.6283 85.056C90.8043 84.912 90.9563 84.8 91.0843 84.72C91.1643 84.64 91.3403 84.496 91.6123 84.288C91.8843 84.064 92.1803 83.832 92.5003 83.592C92.8203 83.352 93.0763 83.168 93.2683 83.04C93.4443 82.912 93.6683 82.784 93.9403 82.656C94.2123 82.512 94.3803 82.44 94.4443 82.44C94.6043 82.44 94.7963 82.496 95.0203 82.608C95.2603 82.72 95.4763 82.856 95.6683 83.016C95.8763 83.16 95.9963 83.296 96.0283 83.424C96.0283 83.488 96.0203 83.576 96.0043 83.688C95.9883 83.784 95.9803 83.872 95.9803 83.952C95.9643 84.208 95.9563 84.52 95.9563 84.888C95.9723 85.24 95.9803 85.6 95.9803 85.968C95.9803 86.32 95.9483 86.64 95.8843 86.928C95.8843 86.928 95.8923 86.944 95.9083 86.976C95.9243 86.992 95.9403 87.024 95.9563 87.072C95.9403 87.088 95.9323 87.12 95.9323 87.168C95.9483 87.2 95.9563 87.216 95.9563 87.216C95.9883 87.328 96.0203 87.44 96.0523 87.552C96.1003 87.664 96.1563 87.792 96.2203 87.936C96.2843 88.064 96.3563 88.232 96.4363 88.44C96.4203 88.648 96.3003 88.856 96.0763 89.064C95.8683 89.256 95.6603 89.376 95.4523 89.424Z" fill="white"/>
<path d="M100.492 90.144C99.9799 90.144 99.5079 90.032 99.0759 89.808C98.6599 89.568 98.3239 89.28 98.0679 88.944C97.8119 88.592 97.6839 88.256 97.6839 87.936C97.6839 87.792 97.7079 87.688 97.7559 87.624C97.8199 87.56 97.9079 87.528 98.0199 87.528C98.0999 87.544 98.1959 87.584 98.3079 87.648C98.4199 87.712 98.5319 87.784 98.6439 87.864C98.8999 88.04 99.1799 88.152 99.4839 88.2C99.7879 88.248 100.06 88.232 100.3 88.152C100.54 88.056 100.676 87.912 100.708 87.72C100.708 87.656 100.676 87.52 100.612 87.312C100.548 87.104 100.468 86.904 100.372 86.712C99.9719 86.12 99.7239 85.56 99.6279 85.032C99.5319 84.488 99.4679 83.944 99.4359 83.4C99.4359 83.176 99.5399 82.928 99.7479 82.656C99.9559 82.368 100.212 82.088 100.516 81.816C100.852 81.528 101.22 81.256 101.62 81C102.036 80.744 102.444 80.528 102.844 80.352C103.244 80.176 103.58 80.072 103.852 80.04C104.14 80.04 104.444 80.056 104.764 80.088C105.1 80.104 105.324 80.16 105.436 80.256C105.66 80.432 105.868 80.72 106.06 81.12C106.252 81.52 106.348 81.856 106.348 82.128C106.348 82.256 106.276 82.416 106.132 82.608C106.004 82.784 105.884 82.984 105.772 83.208C105.708 83.32 105.652 83.44 105.604 83.568C105.556 83.696 105.5 83.824 105.436 83.952C105.34 84.176 105.164 84.272 104.908 84.24C104.668 84.192 104.444 84.064 104.236 83.856C104.028 83.632 103.924 83.376 103.924 83.088C103.924 82.848 103.996 82.64 104.14 82.464C104.284 82.288 104.356 82.168 104.356 82.104C104.356 82.072 104.34 82.048 104.308 82.032C104.276 82.016 104.22 82.008 104.14 82.008C104.028 82.008 103.844 82.056 103.588 82.152C103.348 82.232 103.092 82.352 102.82 82.512C102.548 82.672 102.3 82.864 102.076 83.088C101.916 83.264 101.78 83.456 101.668 83.664C101.572 83.856 101.524 84.064 101.524 84.288C101.524 84.512 101.564 84.776 101.644 85.08C101.74 85.368 101.844 85.608 101.956 85.8C101.988 85.832 102.036 85.92 102.1 86.064C102.18 86.192 102.268 86.352 102.364 86.544C102.956 87.76 103.052 88.664 102.652 89.256C102.268 89.848 101.548 90.144 100.492 90.144Z" fill="white"/>
<path d="M108.859 91.44C108.075 91.424 107.571 91.2 107.347 90.768C107.139 90.352 107.083 89.824 107.179 89.184C107.275 88.88 107.331 88.608 107.347 88.368C107.379 88.112 107.451 87.952 107.563 87.888C107.563 87.888 107.571 87.864 107.587 87.816C107.619 87.768 107.611 87.72 107.563 87.672C107.563 87.464 107.635 87.176 107.779 86.808C107.811 86.712 107.851 86.6 107.899 86.472C107.963 86.328 107.995 86.256 107.995 86.256C107.915 86.128 107.915 86.024 107.995 85.944C108.075 85.864 108.155 85.792 108.235 85.728C108.331 85.648 108.339 85.56 108.259 85.464C108.227 85.4 108.267 85.256 108.379 85.032C108.491 84.792 108.619 84.544 108.763 84.288C108.907 84.032 109.003 83.832 109.051 83.688C109.051 83.656 109.091 83.544 109.171 83.352C109.251 83.16 109.347 82.936 109.459 82.68C109.571 82.424 109.675 82.192 109.771 81.984C109.883 81.776 109.955 81.64 109.987 81.576C110.147 81.496 110.083 81.44 109.795 81.408C109.507 81.376 109.203 81.368 108.883 81.384C108.387 81.368 107.987 81.344 107.683 81.312C107.395 81.28 107.155 81.208 106.963 81.096C106.771 80.872 106.747 80.608 106.891 80.304C107.035 79.984 107.267 79.816 107.587 79.8C107.795 79.784 107.955 79.776 108.067 79.776C108.195 79.776 108.355 79.768 108.547 79.752C108.755 79.72 109.075 79.68 109.507 79.632L110.731 79.536L110.803 79.128C110.931 78.92 111.019 78.784 111.067 78.72C111.115 78.656 111.147 78.592 111.163 78.528C111.179 78.448 111.203 78.312 111.235 78.12C111.235 78.12 111.307 77.992 111.451 77.736C111.595 77.464 111.683 77.184 111.715 76.896C111.907 76.576 112.075 76.288 112.219 76.032C112.363 75.76 112.451 75.592 112.483 75.528C112.755 75.128 113.019 74.912 113.275 74.88C113.547 74.848 113.803 74.912 114.043 75.072C114.187 75.152 114.323 75.256 114.451 75.384C114.579 75.496 114.659 75.648 114.691 75.84C114.723 76.016 114.651 76.248 114.475 76.536C114.443 76.6 114.395 76.72 114.331 76.896C114.267 77.056 114.219 77.192 114.187 77.304C114.091 77.416 113.971 77.6 113.827 77.856C113.699 78.096 113.611 78.344 113.563 78.6C113.435 78.872 113.355 79.04 113.323 79.104C113.291 79.168 113.243 79.2 113.179 79.2C113.211 79.36 113.307 79.44 113.467 79.44C113.627 79.424 113.891 79.408 114.259 79.392C114.563 79.36 114.771 79.328 114.883 79.296C115.011 79.248 115.155 79.264 115.315 79.344C115.395 79.456 115.435 79.624 115.435 79.848C115.451 80.056 115.427 80.264 115.363 80.472C115.299 80.664 115.211 80.784 115.099 80.832C115.019 80.832 114.851 80.88 114.595 80.976C114.355 81.056 114.051 81.104 113.683 81.12L112.411 81.24L112.003 82.056C111.891 82.264 111.795 82.456 111.715 82.632C111.635 82.792 111.579 82.888 111.547 82.92C111.547 83.016 111.491 83.16 111.379 83.352C111.283 83.544 111.179 83.752 111.067 83.976C110.971 84.248 110.859 84.496 110.731 84.72C110.619 84.944 110.563 85.056 110.563 85.056C110.499 85.056 110.467 85.104 110.467 85.2C110.547 85.392 110.523 85.536 110.395 85.632C110.315 85.68 110.243 85.752 110.179 85.848C110.131 85.928 110.107 85.968 110.107 85.968C110.171 86.032 110.179 86.112 110.131 86.208C110.099 86.304 110.051 86.408 109.987 86.52C109.987 86.648 109.947 86.832 109.867 87.072C109.803 87.312 109.731 87.536 109.651 87.744C109.667 88.032 109.683 88.216 109.699 88.296C109.715 88.376 109.755 88.408 109.819 88.392C109.899 88.408 110.011 88.408 110.155 88.392C110.299 88.376 110.403 88.368 110.467 88.368C110.707 88.256 110.595 88.816 110.131 90.048C109.875 90.448 109.619 90.776 109.363 91.032C109.107 91.304 108.939 91.44 108.859 91.44Z" fill="white"/>
<path d="M114.644 89.592C114.516 89.464 114.42 89.272 114.356 89.016C114.308 88.76 114.292 88.512 114.308 88.272C114.324 88.016 114.364 87.824 114.428 87.696C114.428 87.568 114.444 87.472 114.476 87.408C114.524 87.328 114.54 87.256 114.524 87.192C114.508 87.128 114.524 87.016 114.572 86.856C114.62 86.696 114.668 86.544 114.716 86.4C114.828 86.144 114.956 85.816 115.1 85.416C115.244 85 115.388 84.584 115.532 84.168C115.676 83.736 115.796 83.368 115.892 83.064C115.988 82.744 116.044 82.552 116.06 82.488C116.06 82.296 116.188 82.192 116.444 82.176C116.636 82.112 116.868 82.192 117.14 82.416C117.412 82.64 117.628 82.88 117.788 83.136C117.916 83.264 117.964 83.432 117.932 83.64C117.9 83.848 117.796 84.144 117.62 84.528C117.556 84.656 117.476 84.872 117.38 85.176C117.3 85.464 117.244 85.704 117.212 85.896C117.148 86.024 117.068 86.208 116.972 86.448C116.892 86.672 116.82 86.888 116.756 87.096C116.724 87.176 116.692 87.328 116.66 87.552C116.628 87.76 116.588 87.976 116.54 88.2C116.492 88.424 116.428 88.6 116.348 88.728C116.204 89.384 115.948 89.768 115.58 89.88C115.228 89.992 114.916 89.896 114.644 89.592ZM117.236 79.968C117.06 79.84 116.924 79.688 116.828 79.512C116.748 79.32 116.7 79.152 116.684 79.008C116.684 78.864 116.7 78.776 116.732 78.744C116.892 78.568 117.028 78.336 117.14 78.048C117.268 77.76 117.404 77.496 117.548 77.256C117.58 77.208 117.62 77.144 117.668 77.064C117.732 76.968 117.796 76.912 117.86 76.896C118.052 76.768 118.316 76.776 118.652 76.92C119.004 77.064 119.26 77.264 119.42 77.52C119.564 77.824 119.604 78.136 119.54 78.456C119.492 78.776 119.324 79.112 119.036 79.464C118.796 79.784 118.492 79.992 118.124 80.088C117.756 80.168 117.46 80.128 117.236 79.968Z" fill="white"/>
<path d="M120.987 90.024C120.811 89.992 120.619 89.888 120.411 89.712C120.203 89.52 120.011 89.312 119.835 89.088C119.675 88.848 119.571 88.648 119.523 88.488C119.523 88.456 119.499 88.416 119.451 88.368C119.419 88.32 119.403 88.296 119.403 88.296C119.339 88.248 119.299 88.04 119.283 87.672C119.283 87.288 119.307 86.864 119.355 86.4C119.403 85.936 119.459 85.568 119.523 85.296C119.603 85.04 119.723 84.696 119.883 84.264C120.043 83.816 120.179 83.416 120.291 83.064L120.939 81.672L119.979 81.408C119.867 81.376 119.771 81.312 119.691 81.216C119.627 81.12 119.595 81.04 119.595 80.976C119.595 80.848 119.667 80.664 119.811 80.424C119.955 80.184 120.059 80.064 120.123 80.064C120.203 80.08 120.347 80.088 120.555 80.088C120.779 80.088 120.995 80.08 121.203 80.064C121.411 80.048 121.539 80.032 121.587 80.016C121.651 79.984 121.715 79.944 121.779 79.896C121.843 79.832 121.891 79.744 121.923 79.632C122.003 79.456 122.075 79.32 122.139 79.224C122.203 79.128 122.291 78.984 122.403 78.792C122.515 78.584 122.603 78.408 122.667 78.264C122.747 78.12 122.867 77.92 123.027 77.664C123.107 77.552 123.195 77.416 123.291 77.256C123.387 77.096 123.507 76.96 123.651 76.848C123.795 76.72 124.027 76.632 124.347 76.584C124.683 76.52 124.971 76.592 125.211 76.8C125.339 76.96 125.411 77.112 125.427 77.256C125.443 77.4 125.379 77.584 125.235 77.808C125.107 78.08 124.955 78.328 124.779 78.552C124.619 78.76 124.467 79 124.323 79.272C124.067 79.624 124.019 79.824 124.179 79.872C124.339 79.92 124.787 79.888 125.523 79.776C125.987 79.696 126.323 79.744 126.531 79.92C126.739 80.096 126.859 80.32 126.891 80.592C126.939 80.976 126.899 81.208 126.771 81.288C126.643 81.368 126.275 81.408 125.667 81.408C125.283 81.472 124.955 81.512 124.683 81.528C124.411 81.528 124.211 81.528 124.083 81.528C123.875 81.544 123.739 81.552 123.675 81.552C123.611 81.552 123.515 81.568 123.387 81.6C123.259 81.632 123.163 81.688 123.099 81.768C123.051 81.832 122.995 81.928 122.931 82.056C122.867 82.12 122.771 82.288 122.643 82.56C122.515 82.832 122.355 83.128 122.163 83.448C121.939 84.12 121.747 84.768 121.587 85.392C121.443 86 121.315 86.608 121.203 87.216C121.155 87.52 121.163 87.744 121.227 87.888C121.307 88.016 121.515 88.096 121.851 88.128C122.027 88.144 122.283 88.144 122.619 88.128C122.955 88.096 123.235 88.048 123.459 87.984C123.635 87.904 123.819 87.824 124.011 87.744C124.203 87.648 124.379 87.552 124.539 87.456C124.683 87.376 124.827 87.296 124.971 87.216C125.115 87.12 125.187 87.072 125.187 87.072C125.267 86.944 125.379 86.968 125.523 87.144C125.683 87.304 125.795 87.48 125.859 87.672C125.859 87.864 125.819 88.096 125.739 88.368C125.659 88.624 125.363 88.896 124.851 89.184C124.131 89.632 123.411 89.904 122.691 90C121.971 90.096 121.403 90.104 120.987 90.024Z" fill="white"/>
<path d="M132.892 89.952C132.732 89.792 132.604 89.576 132.508 89.304C132.412 89.016 132.316 88.688 132.22 88.32C132.188 88.192 132.172 88.048 132.172 87.888C132.188 87.728 132.188 87.6 132.172 87.504C132.124 87.616 132.044 87.76 131.932 87.936C131.836 88.112 131.74 88.24 131.644 88.32C131.58 88.384 131.436 88.512 131.212 88.704C130.988 88.88 130.764 89.024 130.54 89.136C130.012 89.472 129.54 89.632 129.124 89.616C128.724 89.584 128.372 89.376 128.068 88.992C127.812 88.784 127.604 88.52 127.444 88.2C127.284 87.88 127.252 87.496 127.348 87.048C127.38 86.488 127.46 85.944 127.588 85.416C127.716 84.872 127.98 84.152 128.38 83.256C128.716 82.6 128.972 82.088 129.148 81.72C129.324 81.352 129.436 81.136 129.484 81.072C129.724 80.992 130.02 81 130.372 81.096C130.724 81.176 130.916 81.328 130.948 81.552C131.044 81.712 131.044 82.016 130.948 82.464C130.852 82.896 130.66 83.392 130.372 83.952C130.148 84.496 129.932 85.024 129.724 85.536C129.532 86.048 129.412 86.48 129.364 86.832C129.332 87.184 129.428 87.4 129.652 87.48C129.796 87.56 130.004 87.552 130.276 87.456C130.564 87.36 130.9 87.072 131.284 86.592C131.668 86.112 132.076 85.352 132.508 84.312C132.636 83.992 132.732 83.712 132.796 83.472C132.86 83.216 132.9 82.936 132.916 82.632C132.884 82.44 132.932 82.24 133.06 82.032C133.204 81.824 133.372 81.664 133.564 81.552C133.628 81.472 133.716 81.4 133.828 81.336C133.94 81.256 134.012 81.256 134.044 81.336L134.428 81.312C134.492 81.296 134.564 81.36 134.644 81.504C134.724 81.648 134.804 81.752 134.884 81.816C135.06 81.96 135.14 82.272 135.124 82.752C135.108 83.232 134.916 83.904 134.548 84.768C134.244 85.424 134.036 85.92 133.924 86.256C133.828 86.592 133.772 86.92 133.756 87.24C133.756 87.528 133.78 87.776 133.828 87.984C133.876 88.176 134.02 88.376 134.26 88.584C134.436 88.696 134.532 88.888 134.548 89.16C134.58 89.416 134.588 89.64 134.572 89.832C134.54 89.976 134.412 90.072 134.188 90.12C133.98 90.184 133.748 90.2 133.492 90.168C133.252 90.136 133.052 90.064 132.892 89.952ZM130.732 79.704C130.572 79.576 130.444 79.384 130.348 79.128C130.268 78.856 130.244 78.672 130.276 78.576C130.308 78.464 130.38 78.264 130.492 77.976C130.62 77.672 130.804 77.416 131.044 77.208C131.108 77.16 131.172 77.096 131.236 77.016C131.316 76.92 131.396 76.864 131.476 76.848C131.7 76.672 131.924 76.648 132.148 76.776C132.388 76.888 132.596 77.104 132.772 77.424C132.948 77.792 132.996 78.096 132.916 78.336C132.852 78.576 132.644 78.904 132.292 79.32C131.988 79.72 131.708 79.944 131.452 79.992C131.212 80.024 130.972 79.928 130.732 79.704ZM134.452 79.704C134.292 79.576 134.164 79.384 134.068 79.128C133.988 78.856 133.964 78.672 133.996 78.576C134.028 78.464 134.1 78.264 134.212 77.976C134.34 77.672 134.524 77.416 134.764 77.208C134.828 77.16 134.892 77.096 134.956 77.016C135.036 76.92 135.116 76.864 135.196 76.848C135.42 76.672 135.644 76.648 135.868 76.776C136.108 76.888 136.316 77.104 136.492 77.424C136.668 77.792 136.716 78.096 136.636 78.336C136.572 78.576 136.364 78.904 136.012 79.32C135.708 79.72 135.428 79.944 135.172 79.992C134.932 80.024 134.692 79.928 134.452 79.704Z" fill="white"/>
<path d="M137.383 90.144C136.839 89.92 136.439 89.688 136.183 89.448C135.943 89.192 135.847 88.968 135.895 88.776C135.927 88.68 135.983 88.592 136.063 88.512C136.143 88.432 136.319 88.4 136.591 88.416C136.879 88.416 137.319 88.488 137.911 88.632C138.087 88.632 138.263 88.624 138.439 88.608C138.615 88.592 138.775 88.568 138.919 88.536C139.079 88.504 139.207 88.464 139.303 88.416C139.383 88.384 139.407 88.344 139.375 88.296C139.343 88.232 139.287 88.168 139.207 88.104C139.143 88.024 139.071 87.976 138.991 87.96C138.911 87.928 138.839 87.912 138.775 87.912C138.743 87.832 138.671 87.752 138.559 87.672C138.463 87.592 138.343 87.504 138.199 87.408C137.847 87.12 137.527 86.864 137.239 86.64C136.951 86.416 136.839 86.248 136.903 86.136C136.903 86.072 136.903 86.04 136.903 86.04C136.903 86.024 136.903 86.016 136.903 86.016C136.791 86.016 136.687 85.864 136.591 85.56C136.495 85.24 136.447 84.952 136.447 84.696C136.447 84.376 136.511 84.056 136.639 83.736C136.783 83.416 136.959 83.112 137.167 82.824C137.391 82.536 137.615 82.28 137.839 82.056C138.143 81.768 138.463 81.488 138.799 81.216C139.151 80.928 139.527 80.672 139.927 80.448C140.343 80.224 140.799 80.048 141.295 79.92C141.519 79.872 141.775 79.848 142.063 79.848C142.351 79.848 142.559 79.888 142.687 79.968C142.815 79.888 142.975 79.912 143.167 80.04C143.359 80.152 143.551 80.312 143.743 80.52C143.935 80.728 144.079 80.936 144.175 81.144C144.175 81.336 144.167 81.576 144.151 81.864C144.151 82.136 144.135 82.376 144.103 82.584C144.071 82.792 143.999 82.896 143.887 82.896C143.887 82.896 143.863 82.904 143.815 82.92C143.783 82.92 143.767 82.96 143.767 83.04C143.767 83.2 143.647 83.384 143.407 83.592C143.103 83.8 142.815 83.968 142.543 84.096C142.271 84.224 142.063 84.232 141.919 84.12C141.823 84.056 141.735 83.992 141.655 83.928C141.575 83.864 141.503 83.784 141.439 83.688C141.439 83.688 141.415 83.656 141.367 83.592C141.335 83.512 141.319 83.44 141.319 83.376C141.319 83.312 141.343 83.256 141.391 83.208C141.439 83.144 141.463 83.112 141.463 83.112C141.687 82.904 141.855 82.712 141.967 82.536C142.095 82.36 142.183 82.208 142.231 82.08C142.279 81.936 142.303 81.824 142.303 81.744C142.303 81.648 142.279 81.592 142.231 81.576C142.199 81.544 142.119 81.528 141.991 81.528C141.911 81.528 141.735 81.592 141.463 81.72C141.207 81.848 140.935 82.008 140.647 82.2C140.359 82.376 140.135 82.536 139.975 82.68C139.911 82.792 139.863 82.864 139.831 82.896C139.815 82.928 139.775 82.944 139.711 82.944C139.711 82.88 139.671 82.888 139.591 82.968C139.511 83.048 139.415 83.16 139.303 83.304C139.191 83.448 139.079 83.6 138.967 83.76C138.855 83.92 138.767 84.048 138.703 84.144C138.687 84.288 138.647 84.424 138.583 84.552C138.535 84.664 138.519 84.784 138.535 84.912C138.551 85.072 138.631 85.224 138.775 85.368C138.919 85.512 139.127 85.696 139.399 85.92C139.959 86.336 140.375 86.664 140.647 86.904C140.935 87.144 141.135 87.336 141.247 87.48C141.359 87.624 141.431 87.768 141.463 87.912C141.735 88.408 141.767 88.84 141.559 89.208C141.351 89.56 141.031 89.832 140.599 90.024C140.439 90.104 140.159 90.176 139.759 90.24C139.359 90.32 138.935 90.352 138.487 90.336C138.055 90.336 137.687 90.272 137.383 90.144Z" fill="white"/>
<path d="M150.166 89.952C150.006 89.792 149.878 89.576 149.782 89.304C149.686 89.016 149.59 88.688 149.494 88.32C149.462 88.192 149.446 88.048 149.446 87.888C149.462 87.728 149.462 87.6 149.446 87.504C149.398 87.616 149.318 87.76 149.206 87.936C149.11 88.112 149.014 88.24 148.918 88.32C148.854 88.384 148.71 88.512 148.486 88.704C148.262 88.88 148.038 89.024 147.814 89.136C147.286 89.472 146.814 89.632 146.398 89.616C145.998 89.584 145.646 89.376 145.342 88.992C145.086 88.784 144.878 88.52 144.718 88.2C144.558 87.88 144.526 87.496 144.622 87.048C144.654 86.488 144.734 85.944 144.862 85.416C144.99 84.872 145.254 84.152 145.654 83.256C145.99 82.6 146.246 82.088 146.422 81.72C146.598 81.352 146.71 81.136 146.758 81.072C146.998 80.992 147.294 81 147.646 81.096C147.998 81.176 148.19 81.328 148.222 81.552C148.318 81.712 148.318 82.016 148.222 82.464C148.126 82.896 147.934 83.392 147.646 83.952C147.422 84.496 147.206 85.024 146.998 85.536C146.806 86.048 146.686 86.48 146.638 86.832C146.606 87.184 146.702 87.4 146.926 87.48C147.07 87.56 147.278 87.552 147.55 87.456C147.838 87.36 148.174 87.072 148.558 86.592C148.942 86.112 149.35 85.352 149.782 84.312C149.91 83.992 150.006 83.712 150.07 83.472C150.134 83.216 150.174 82.936 150.19 82.632C150.158 82.44 150.206 82.24 150.334 82.032C150.478 81.824 150.646 81.664 150.838 81.552C150.902 81.472 150.99 81.4 151.102 81.336C151.214 81.256 151.286 81.256 151.318 81.336L151.702 81.312C151.766 81.296 151.838 81.36 151.918 81.504C151.998 81.648 152.078 81.752 152.158 81.816C152.334 81.96 152.414 82.272 152.398 82.752C152.382 83.232 152.19 83.904 151.822 84.768C151.518 85.424 151.31 85.92 151.198 86.256C151.102 86.592 151.046 86.92 151.03 87.24C151.03 87.528 151.054 87.776 151.102 87.984C151.15 88.176 151.294 88.376 151.534 88.584C151.71 88.696 151.806 88.888 151.822 89.16C151.854 89.416 151.862 89.64 151.846 89.832C151.814 89.976 151.686 90.072 151.462 90.12C151.254 90.184 151.022 90.2 150.766 90.168C150.526 90.136 150.326 90.064 150.166 89.952ZM148.006 79.704C147.846 79.576 147.718 79.384 147.622 79.128C147.542 78.856 147.518 78.672 147.55 78.576C147.582 78.464 147.654 78.264 147.766 77.976C147.894 77.672 148.078 77.416 148.318 77.208C148.382 77.16 148.446 77.096 148.51 77.016C148.59 76.92 148.67 76.864 148.75 76.848C148.974 76.672 149.198 76.648 149.422 76.776C149.662 76.888 149.87 77.104 150.046 77.424C150.222 77.792 150.27 78.096 150.19 78.336C150.126 78.576 149.918 78.904 149.566 79.32C149.262 79.72 148.982 79.944 148.726 79.992C148.486 80.024 148.246 79.928 148.006 79.704ZM151.726 79.704C151.566 79.576 151.438 79.384 151.342 79.128C151.262 78.856 151.238 78.672 151.27 78.576C151.302 78.464 151.374 78.264 151.486 77.976C151.614 77.672 151.798 77.416 152.038 77.208C152.102 77.16 152.166 77.096 152.23 77.016C152.31 76.92 152.39 76.864 152.47 76.848C152.694 76.672 152.918 76.648 153.142 76.776C153.382 76.888 153.59 77.104 153.766 77.424C153.942 77.792 153.99 78.096 153.91 78.336C153.846 78.576 153.638 78.904 153.286 79.32C152.982 79.72 152.702 79.944 152.446 79.992C152.206 80.024 151.966 79.928 151.726 79.704Z" fill="white"/>
</svg>
