<?xml version="1.0" standalone="no"?>
<!DOCTYPE svg PUBLIC "-//W3C//DTD SVG 20010904//EN"
 "http://www.w3.org/TR/2001/REC-SVG-20010904/DTD/svg10.dtd">
<svg version="1.0" xmlns="http://www.w3.org/2000/svg"
 width="1920.000000pt" height="1920.000000pt" viewBox="0 0 1920.000000 1920.000000"
 preserveAspectRatio="xMidYMid meet">
<metadata>
Created by potrace 1.14, written by Peter Selinger 2001-2017
</metadata>
<g transform="translate(0.000000,1920.000000) scale(0.100000,-0.100000)"
fill="#000000" stroke="none">
<path d="M9140 18271 c-8 -5 -80 -12 -160 -15 -192 -9 -694 -63 -755 -82 -11
-3 -81 -16 -155 -29 -309 -54 -605 -124 -989 -235 -76 -21 -275 -87 -366 -120
-431 -156 -579 -219 -964 -407 -1120 -546 -2102 -1329 -2916 -2323 -389 -475
-744 -1027 -1032 -1602 -56 -114 -103 -209 -103 -212 0 -2 -18 -42 -39 -88
-46 -97 -151 -343 -151 -353 0 -4 -7 -21 -15 -38 -46 -102 -183 -492 -234
-672 -11 -38 -33 -115 -49 -170 -16 -55 -35 -125 -42 -155 -6 -30 -15 -64 -20
-75 -15 -35 -92 -391 -119 -550 -11 -60 -24 -130 -29 -155 -6 -25 -18 -112
-27 -195 -9 -82 -20 -166 -25 -185 -6 -19 -17 -123 -25 -230 -8 -107 -20 -244
-26 -305 -13 -136 -6 -1028 9 -1135 6 -41 16 -142 22 -225 6 -82 15 -170 20
-195 6 -25 19 -115 30 -200 62 -503 214 -1120 409 -1665 242 -677 541 -1280
926 -1865 434 -660 900 -1198 1515 -1750 152 -136 464 -389 588 -478 340 -240
400 -280 592 -399 329 -203 708 -402 1060 -558 107 -47 204 -90 215 -95 145
-64 592 -221 847 -296 278 -82 716 -187 893 -214 39 -6 104 -18 145 -26 41 -8
147 -24 235 -35 511 -64 661 -73 1195 -74 399 0 502 3 730 23 146 12 283 26
305 31 22 6 90 15 150 21 61 6 148 18 195 26 319 55 419 75 640 128 231 55
239 57 460 122 174 51 515 167 600 203 14 6 68 27 120 46 52 20 109 42 125 50
17 7 82 35 145 63 327 142 732 349 995 509 44 27 102 62 129 78 72 43 434 286
512 342 1156 843 2086 1942 2703 3198 77 156 141 292 141 299 0 2 17 42 39 88
93 199 284 712 339 913 11 39 32 111 47 160 62 204 141 538 185 780 11 61 27
146 36 190 18 96 49 333 69 540 8 83 20 209 27 280 18 179 18 1053 0 1230 -7
72 -19 198 -27 280 -36 382 -97 739 -189 1120 -14 55 -34 140 -46 190 -11 49
-27 110 -35 135 -8 25 -28 92 -45 150 -53 175 -90 294 -99 315 -5 11 -21 56
-36 100 -30 86 -90 247 -105 280 -5 11 -27 65 -49 120 -59 151 -172 398 -276
605 -614 1230 -1522 2302 -2650 3129 -122 89 -493 336 -630 418 -93 57 -403
231 -470 265 -273 138 -409 203 -590 280 -135 58 -294 121 -440 174 -38 14
-92 34 -120 44 -361 133 -923 280 -1355 355 -74 13 -144 26 -155 29 -50 15
-510 67 -770 87 -181 14 -1044 22 -1065 10z m1040 -326 c96 -7 263 -22 370
-34 177 -19 245 -28 350 -47 19 -3 96 -16 170 -29 301 -52 600 -122 930 -219
138 -40 552 -181 605 -206 11 -5 72 -29 135 -54 257 -100 647 -285 920 -436
1304 -720 2408 -1791 3165 -3070 187 -315 416 -772 526 -1047 16 -40 43 -108
60 -150 72 -180 138 -366 199 -563 23 -74 46 -146 51 -160 10 -27 47 -167 86
-325 13 -55 26 -107 29 -115 80 -306 170 -900 205 -1355 16 -207 23 -913 10
-995 -6 -36 -15 -146 -21 -245 -7 -99 -16 -209 -20 -245 -5 -36 -16 -121 -25
-190 -9 -69 -20 -150 -25 -180 -68 -385 -96 -521 -154 -755 -39 -157 -122
-449 -136 -480 -5 -11 -15 -40 -21 -65 -15 -52 -135 -395 -149 -425 -5 -11
-28 -67 -50 -125 -189 -481 -488 -1048 -802 -1518 -321 -482 -623 -848 -1052
-1278 -591 -590 -1157 -1017 -1896 -1428 -80 -45 -493 -251 -575 -288 -137
-61 -245 -107 -325 -137 -47 -18 -98 -39 -115 -47 -63 -29 -350 -127 -650
-221 -120 -38 -358 -98 -565 -143 -75 -16 -142 -31 -150 -34 -32 -13 -373 -66
-730 -114 -41 -6 -156 -16 -255 -22 -99 -6 -209 -15 -245 -21 -84 -13 -793 -6
-995 10 -217 17 -406 38 -600 65 -198 28 -473 73 -495 82 -8 3 -75 18 -150 34
-207 45 -445 105 -565 143 -299 94 -587 192 -650 221 -16 8 -82 34 -145 59
-63 25 -146 60 -185 77 -38 17 -92 41 -120 53 -62 26 -479 235 -560 280 -728
403 -1315 845 -1906 1436 -557 558 -973 1102 -1362 1781 -168 295 -372 716
-487 1010 -22 58 -45 114 -50 125 -16 33 -119 330 -161 464 -22 69 -49 153
-59 186 -10 33 -26 89 -35 125 -9 36 -20 79 -26 95 -5 17 -21 77 -35 135 -109
446 -183 924 -225 1445 -16 191 -16 931 0 1130 39 510 122 1033 230 1455 59
233 81 316 90 340 5 14 28 86 51 160 62 198 127 383 200 565 18 44 41 103 52
130 22 56 19 49 121 275 635 1401 1663 2610 2962 3485 66 44 145 96 175 114
30 19 102 63 160 99 339 208 839 457 1200 598 63 25 124 49 135 54 33 16 181
68 345 121 85 28 164 55 175 59 24 10 121 38 300 86 271 73 456 113 745 164
245 44 271 47 445 65 88 8 194 20 235 26 138 19 322 26 745 27 267 1 484 -4
595 -13z"/>
<path d="M8800 17439 c-316 -39 -500 -170 -500 -354 0 -144 103 -245 295 -290
38 -8 145 -24 238 -35 298 -35 357 -60 357 -148 0 -80 -91 -143 -236 -163
-172 -24 -301 30 -350 147 -8 19 -20 32 -27 29 -6 -2 -64 -16 -127 -30 -63
-15 -118 -30 -123 -34 -13 -13 56 -135 104 -183 99 -99 255 -145 454 -135 277
15 444 76 539 197 51 64 69 127 64 214 -6 85 -30 137 -87 189 -95 86 -190 112
-585 162 -180 22 -251 67 -218 139 28 63 233 118 362 97 79 -13 121 -40 151
-97 l24 -45 130 7 c195 10 180 6 177 45 -8 84 -82 182 -173 230 -103 53 -309
78 -469 58z"/>
<path d="M10590 17343 c0 -15 -86 -885 -106 -1070 -4 -35 -3 -63 2 -63 5 0 63
-7 129 -15 65 -8 124 -15 131 -15 7 0 20 62 34 164 12 90 26 169 29 174 3 5
62 41 131 81 109 62 126 70 136 56 19 -25 132 -275 199 -438 l61 -151 120 -32
c65 -17 143 -38 172 -47 28 -9 52 -15 52 -13 0 1 -22 59 -49 127 -70 179 -152
362 -240 534 -42 83 -77 153 -79 156 -6 12 449 215 616 275 l53 18 -48 17
c-26 9 -124 35 -216 59 l-168 43 -192 -96 c-106 -53 -262 -137 -347 -186 -85
-49 -156 -88 -157 -87 -1 1 14 109 33 240 20 131 34 240 31 242 -3 4 -297 44
-319 44 -5 0 -8 -8 -8 -17z"/>
<path d="M12555 17200 c-8 -13 -66 -173 -63 -175 11 -6 226 -87 237 -88 14 -2
84 148 78 166 -4 14 -246 107 -252 97z"/>
<path d="M7430 17170 c-14 -5 -83 -25 -153 -46 -104 -30 -130 -42 -137 -59
-25 -64 -90 -617 -109 -930 -20 -301 -20 -327 -2 -319 9 3 70 27 136 53 l120
46 8 130 c4 72 9 135 12 142 8 23 522 174 533 157 49 -71 166 -214 175 -214 7
0 71 12 144 26 122 25 131 28 122 45 -20 39 -312 420 -419 549 -212 254 -374
431 -393 429 -7 0 -23 -4 -37 -9z m101 -455 c130 -149 165 -193 158 -198 -2
-2 -76 -24 -164 -49 -88 -26 -169 -50 -179 -54 -18 -7 -19 -3 -13 63 11 131
50 394 58 391 5 -2 67 -70 140 -153z"/>
<path d="M12957 16943 c-20 -47 -36 -87 -35 -89 4 -3 240 -114 243 -114 10 0
76 172 69 178 -8 8 -230 112 -236 112 -2 0 -20 -39 -41 -87z"/>
<path d="M12187 17013 c-10 -17 -209 -632 -229 -708 -13 -48 -22 -112 -22
-160 -1 -71 3 -88 31 -145 64 -130 209 -234 448 -321 83 -30 99 -33 215 -33
117 -1 128 1 175 26 107 56 140 105 376 554 128 243 158 308 148 316 -33 23
-260 129 -269 126 -6 -2 -82 -155 -169 -340 -217 -460 -219 -463 -350 -463
-71 0 -85 3 -165 43 -94 47 -136 90 -158 165 -17 56 -2 107 148 506 69 183
123 335 121 338 -5 4 -284 103 -292 103 -2 0 -6 -3 -8 -7z"/>
<path d="M6435 16821 c-50 -21 -137 -60 -196 -88 l-105 -50 -66 -149 c-72
-161 -150 -353 -193 -476 -15 -43 -31 -78 -34 -78 -4 0 -60 92 -126 205 -65
113 -123 205 -128 205 -10 0 -157 -86 -224 -132 l-42 -28 73 -113 c40 -61 175
-274 301 -472 125 -198 233 -366 239 -372 9 -10 35 2 116 52 58 35 109 66 114
68 6 2 -30 72 -78 156 l-89 153 49 130 c27 72 55 133 61 135 14 5 255 -118
444 -227 67 -39 125 -70 129 -70 5 0 71 27 147 60 76 34 147 64 157 69 16 6
-11 25 -134 95 -146 84 -461 246 -583 300 -31 14 -57 29 -57 33 0 15 186 387
254 507 36 65 65 120 64 122 -2 1 -44 -14 -93 -35z"/>
<path d="M13356 15869 c-157 -269 -286 -492 -286 -496 0 -5 42 -33 92 -63 144
-86 358 -232 526 -357 84 -64 155 -114 157 -112 29 30 113 145 109 150 -9 15
-320 244 -436 323 l-117 78 33 52 c18 28 131 203 250 389 119 186 219 344 222
350 2 7 -8 19 -23 28 -16 9 -76 45 -134 82 l-107 66 -286 -490z"/>
<path d="M5055 16056 c-16 -12 -82 -60 -145 -106 -217 -158 -624 -494 -636
-525 -3 -8 148 -181 377 -432 210 -230 384 -420 385 -422 4 -4 204 168 204
176 0 2 -70 87 -155 188 l-155 184 53 44 c82 69 234 187 330 256 48 35 87 65
87 68 0 8 -104 153 -109 153 -10 -1 -216 -154 -339 -252 -64 -51 -124 -99
-133 -106 -16 -11 -27 0 -101 88 -46 56 -84 104 -86 108 -4 13 360 299 510
400 26 18 50 37 53 42 6 10 -90 160 -103 160 -4 -1 -20 -11 -37 -24z"/>
<path d="M9105 15844 c-653 -49 -1345 -219 -1957 -479 -1926 -818 -3314 -2536
-3708 -4590 -82 -427 -105 -686 -105 -1180 0 -363 9 -541 41 -795 37 -299 107
-635 195 -945 160 -560 427 -1150 747 -1649 595 -928 1424 -1683 2402 -2188
433 -223 778 -354 1355 -513 71 -20 433 -93 545 -111 410 -64 974 -91 1360
-64 187 14 490 46 605 65 116 19 475 92 540 110 378 104 537 156 805 263 1351
536 2474 1534 3184 2830 359 655 613 1441 710 2202 62 484 59 1180 -9 1658
-194 1376 -850 2670 -1839 3629 -1060 1028 -2444 1651 -3902 1758 -256 18
-717 18 -969 -1z m-93 -1087 c9 -13 44 -25 113 -38 55 -11 106 -22 113 -25 9
-2 -16 -36 -67 -91 -68 -73 -81 -92 -76 -113 8 -42 25 -204 21 -208 -2 -2 -51
19 -109 47 l-106 51 -103 -50 c-57 -27 -106 -50 -109 -50 -3 0 0 44 7 98 20
147 23 135 -68 228 -54 55 -76 85 -67 88 12 4 217 46 225 46 1 0 24 39 50 88
26 48 51 93 57 100 8 10 22 -8 58 -70 26 -46 53 -91 61 -101z m1353 83 c26
-47 50 -89 55 -93 4 -5 54 -17 111 -28 126 -25 136 -28 124 -37 -6 -4 -43 -42
-84 -84 l-74 -77 13 -115 c7 -64 11 -119 8 -121 -3 -3 -52 17 -108 44 l-102
51 -106 -50 c-58 -28 -107 -48 -109 -46 -5 4 13 167 22 211 3 15 -19 45 -77
108 -44 48 -79 89 -77 91 2 1 49 11 104 21 55 10 107 22 116 26 9 5 40 51 70
104 29 53 56 92 60 88 4 -5 29 -46 54 -93z m-2685 -351 c36 -65 62 -101 75
-104 60 -14 210 -45 214 -45 3 0 -19 -26 -50 -57 -119 -126 -110 -108 -99
-204 5 -46 12 -101 15 -122 l5 -37 -107 54 -108 53 -108 -50 c-59 -27 -109
-48 -111 -46 -1 2 4 55 11 117 l15 113 -81 89 -81 88 48 11 c26 5 63 13 82 16
108 20 105 18 162 125 29 55 55 100 58 100 3 0 30 -46 60 -101z m3976 -16 c39
-73 49 -83 82 -93 20 -5 43 -10 50 -10 7 0 44 -7 83 -16 l69 -16 -80 -86 c-47
-50 -80 -95 -80 -107 1 -11 7 -64 14 -117 7 -54 9 -98 5 -98 -4 0 -54 22 -111
49 l-104 48 -107 -54 c-63 -31 -107 -48 -107 -41 1 7 7 62 14 123 l14 110 -80
87 c-44 49 -78 88 -76 88 4 0 164 34 213 45 13 3 39 39 75 104 63 115 53 117
126 -16z m-5114 -659 c29 -53 62 -100 73 -105 11 -4 58 -16 105 -25 47 -9 91
-19 97 -23 9 -5 -12 -34 -65 -91 l-78 -85 12 -90 c7 -49 13 -104 13 -121 l1
-31 -107 52 -108 52 -104 -49 c-57 -27 -106 -46 -108 -44 -3 3 1 56 9 118 l14
113 -80 84 c-61 64 -76 85 -65 91 8 5 55 16 104 25 50 10 98 21 107 26 9 5 40
52 68 104 28 52 53 95 55 95 2 0 28 -43 57 -96z m6248 -19 c23 -44 44 -81 45
-83 2 -2 49 -12 106 -24 57 -11 110 -23 117 -27 9 -5 -11 -33 -66 -92 l-79
-84 14 -114 c7 -63 11 -116 9 -118 -2 -3 -52 18 -111 46 l-107 51 -104 -53
c-57 -30 -105 -52 -107 -51 -2 2 4 57 12 123 l15 120 -78 82 c-58 60 -75 84
-65 89 8 4 52 15 99 25 47 9 93 19 102 21 10 3 43 50 74 105 64 114 52 116
124 -16z m-2655 -531 c-9 -82 -22 -192 -30 -244 -8 -52 -21 -153 -30 -225 -13
-114 -82 -609 -146 -1058 -12 -81 -19 -150 -16 -153 2 -3 36 29 73 71 38 42
100 103 138 136 l70 59 126 0 c69 0 141 4 159 10 41 12 101 72 121 120 7 19
24 58 36 85 12 28 68 158 124 290 213 500 352 805 357 788 6 -17 -89 -251
-402 -993 -29 -69 -62 -147 -74 -173 -19 -44 -19 -50 -5 -72 25 -39 426 -395
444 -395 3 0 45 51 92 113 47 61 143 184 213 272 70 88 174 221 232 295 150
190 356 442 378 460 46 38 -57 -105 -340 -469 -82 -106 -159 -206 -170 -221
-11 -16 -58 -77 -105 -136 -284 -358 -270 -337 -252 -358 10 -10 115 -97 234
-192 l216 -175 40 28 c21 15 126 94 233 174 610 458 859 638 859 621 0 -8
-193 -164 -370 -298 -107 -82 -487 -369 -572 -433 -151 -114 -149 -112 -137
-127 13 -16 391 -300 495 -373 l60 -42 55 21 c30 11 68 27 84 34 17 8 62 26
100 40 39 15 79 31 90 36 11 5 67 28 125 50 58 23 125 50 150 60 121 50 374
140 384 137 17 -6 -134 -71 -599 -261 -77 -32 -153 -63 -170 -70 -16 -8 -63
-26 -102 -41 -40 -16 -73 -31 -73 -34 1 -17 743 -513 866 -579 15 -8 57 -7
160 3 76 8 150 14 164 14 l25 -1 -25 -9 c-14 -5 -79 -17 -145 -27 l-119 -18
134 -79 c775 -457 1493 -765 2082 -895 71 -16 133 -31 136 -35 16 -16 -68
-553 -89 -566 -21 -12 -184 -29 -288 -29 -83 0 -112 -4 -152 -22 -48 -20 -60
-21 -242 -14 -207 8 -267 15 -336 41 -42 15 -50 15 -112 0 -90 -22 -162 -21
-234 3 -93 32 -236 53 -363 54 -105 1 -128 -2 -232 -33 l-115 -34 -220 0
c-121 1 -251 6 -290 12 -67 11 -73 14 -140 78 -77 73 -163 119 -410 220 -289
119 -540 202 -840 280 l-140 37 -280 3 c-156 1 -327 9 -385 16 -58 7 -127 14
-155 14 -47 0 -50 -2 -53 -27 -11 -93 209 -310 421 -414 84 -41 115 -62 137
-92 15 -21 49 -51 74 -66 39 -23 46 -32 46 -57 0 -26 -3 -30 -17 -24 -111 42
-434 71 -616 55 -88 -8 -235 -37 -256 -49 -7 -5 -9 -24 -5 -54 l7 -48 176 -99
c99 -56 169 -101 161 -104 -8 -2 -41 -6 -73 -9 -59 -4 -59 -4 -107 43 -86 84
-349 191 -612 250 -54 12 -98 25 -98 29 0 3 16 15 36 26 20 11 58 40 85 65 43
40 49 51 49 86 -1 122 -125 227 -300 255 -171 26 -436 -12 -550 -79 -52 -31
-49 -29 -248 -122 -155 -71 -237 -98 -266 -87 -32 13 -14 33 72 83 200 118
290 216 220 243 -94 35 -513 53 -713 31 -181 -21 -448 -86 -641 -156 -51 -18
-186 -80 -301 -138 -114 -57 -266 -129 -338 -159 -71 -30 -191 -84 -265 -120
-216 -105 -471 -197 -544 -197 -49 0 -26 30 78 104 127 90 279 234 305 290 30
62 28 116 -6 148 -64 60 -163 84 -381 94 -143 7 -173 5 -752 -57 -157 -16
-413 -43 -570 -60 -157 -16 -408 -43 -559 -60 -150 -17 -287 -29 -305 -27 -30
3 -31 5 -38 58 -3 30 -13 101 -22 157 -23 146 -24 140 31 148 86 12 347 82
524 140 395 130 853 331 1294 567 284 153 636 362 615 365 -8 2 -94 14 -190
28 -172 25 -258 42 -214 44 31 1 330 -28 399 -39 l59 -10 106 67 c228 145 722
482 734 501 2 4 -46 27 -107 52 -62 24 -130 52 -152 61 -22 10 -150 63 -285
118 -306 124 -501 208 -514 221 -14 14 76 -14 207 -64 238 -93 453 -177 472
-186 11 -5 43 -18 70 -28 28 -11 119 -47 203 -81 l153 -62 85 62 c82 59 429
322 448 340 6 6 4 14 -6 21 -178 137 -380 291 -418 318 -27 19 -93 69 -147
110 -54 42 -165 127 -248 190 -360 273 -475 382 -202 189 79 -56 723 -534 887
-659 112 -85 174 -130 180 -130 4 0 307 244 408 330 l42 35 -88 111 c-535 682
-828 1066 -851 1114 -28 58 177 -192 635 -775 65 -82 167 -212 227 -288 l109
-137 62 52 c61 53 350 302 374 323 9 8 -1 42 -49 155 -33 80 -66 159 -74 175
-52 116 -321 764 -374 904 -18 46 -30 86 -27 89 10 9 194 -403 463 -1038 l109
-255 41 3 c44 4 87 -13 117 -47 25 -28 47 -27 76 4 43 46 86 32 163 -53 46
-50 202 -188 227 -202 19 -10 20 -26 -15 220 -13 91 -26 188 -30 215 -3 28
-26 192 -51 365 -71 494 -141 1071 -130 1059 15 -14 103 -555 146 -889 10 -75
52 -362 90 -620 23 -152 50 -357 50 -377 0 -15 91 -62 169 -88 70 -23 189 -17
246 12 74 39 91 62 99 136 3 36 17 137 30 224 14 87 32 214 41 283 10 69 19
134 21 145 9 46 23 144 29 200 3 33 12 96 20 140 8 44 19 116 25 160 6 44 13
91 15 105 2 14 9 61 15 105 6 44 22 147 36 229 48 289 63 324 39 90z m-4510
-420 l44 -81 113 -23 c62 -13 115 -25 117 -26 2 -2 -32 -42 -75 -89 l-78 -87
15 -119 c8 -65 11 -119 6 -119 -4 0 -53 23 -109 51 l-102 51 -104 -51 c-58
-29 -106 -50 -108 -48 -3 2 2 56 9 118 l14 114 -80 88 c-44 48 -78 89 -76 91
2 2 54 13 114 25 73 14 114 27 123 39 7 9 34 55 59 101 53 97 45 100 118 -35z
m8085 20 c33 -59 60 -98 74 -103 11 -4 65 -16 119 -26 53 -11 97 -22 97 -25 0
-3 -14 -19 -31 -36 -17 -16 -52 -54 -79 -84 l-47 -55 14 -114 c7 -63 12 -116
10 -118 -2 -2 -51 19 -109 48 l-105 51 -101 -51 c-56 -28 -105 -51 -110 -51
-4 0 -1 54 7 119 l14 120 -77 84 c-42 46 -76 87 -76 89 0 3 51 15 114 28 l114
22 47 87 c47 84 64 111 71 111 1 0 26 -43 54 -96z m-8741 -1167 c23 -42 50
-81 59 -85 9 -5 62 -17 117 -27 55 -10 102 -20 104 -22 3 -2 -20 -29 -50 -61
-112 -118 -108 -110 -99 -177 4 -33 11 -87 14 -120 l7 -61 -110 53 -110 52
-103 -49 c-56 -27 -104 -47 -107 -45 -2 3 2 57 9 121 l13 115 -83 84 c-56 56
-79 86 -69 89 8 2 52 11 99 20 47 10 95 19 107 22 16 3 36 30 69 92 26 48 52
93 57 100 12 15 16 10 76 -101z m9404 0 c23 -44 49 -82 57 -86 8 -4 61 -16
118 -27 56 -10 102 -22 102 -27 0 -5 -34 -45 -77 -88 l-76 -79 13 -115 c7 -64
11 -118 8 -120 -2 -2 -52 18 -110 46 l-107 51 -105 -55 c-122 -62 -113 -71
-92 88 l13 100 -79 88 c-44 48 -79 89 -77 91 2 1 47 10 99 20 52 10 104 21
115 26 11 4 45 51 75 104 63 111 54 112 123 -17z m-9739 -1266 c31 -55 64
-102 74 -105 9 -2 55 -12 102 -21 47 -10 91 -20 98 -24 9 -5 -11 -33 -64 -90
l-77 -82 6 -57 c3 -31 9 -87 13 -124 l7 -66 -106 54 -105 54 -107 -51 c-59
-27 -109 -48 -112 -46 -2 3 3 56 10 118 l14 114 -79 84 c-59 62 -76 86 -66 92
7 4 54 15 103 24 50 10 98 21 107 26 10 5 41 52 69 104 28 52 52 95 54 95 2 0
28 -45 59 -99z m10066 -16 c24 -44 44 -81 45 -83 2 -2 49 -12 106 -24 57 -11
110 -23 116 -27 9 -5 -13 -34 -65 -91 l-79 -85 13 -115 c7 -63 12 -116 10
-117 -2 -2 -52 19 -111 46 l-107 51 -106 -55 c-59 -30 -107 -53 -108 -52 -1 1
6 57 14 124 l16 122 -78 82 c-58 60 -75 84 -65 89 8 4 52 15 99 25 47 9 93 18
102 21 9 3 33 35 54 72 20 37 46 82 56 100 24 39 20 42 88 -83z m-4983 -2642
l113 -348 -90 -90 -90 -91 2 -477 3 -477 305 365 c243 290 305 370 304 392 0
16 -4 73 -8 128 l-8 100 308 192 c169 106 310 191 312 189 2 -2 -53 -143 -122
-313 -69 -169 -129 -320 -135 -334 -11 -29 -26 -33 -174 -45 l-89 -7 -336
-400 c-186 -220 -338 -403 -340 -406 -2 -6 550 -672 677 -817 32 -37 51 -47
172 -89 l136 -47 130 -156 c72 -86 153 -185 182 -218 l51 -62 -68 -16 c-156
-39 -140 -29 -179 -114 -19 -42 -39 -87 -44 -100 -8 -21 -24 -5 -192 193
l-182 217 -26 146 -25 147 -325 385 -324 385 -3 -508 -2 -509 75 -124 75 -125
0 -280 c0 -183 -4 -279 -10 -279 -6 0 -46 18 -90 40 -44 22 -89 40 -100 40
-11 0 -56 -18 -100 -40 -44 -22 -84 -40 -90 -40 -6 0 -10 96 -10 279 l0 280
75 125 75 124 -2 507 -3 508 -325 -387 -325 -386 -23 -141 -22 -142 -48 -57
c-26 -32 -108 -130 -182 -218 l-135 -161 -46 98 -46 98 -59 16 c-33 9 -78 21
-102 27 -24 6 -42 15 -40 19 2 5 82 103 178 219 l175 210 137 47 138 47 356
425 c195 234 353 430 351 436 -7 15 -618 742 -655 779 -25 24 -38 27 -146 37
-65 6 -120 12 -122 14 -8 8 -274 671 -270 674 2 2 141 -82 310 -187 l306 -191
-1 -47 c0 -26 -4 -83 -8 -127 l-9 -80 307 -366 306 -367 3 476 2 476 -90 91
-89 90 111 348 c62 191 115 347 118 347 3 0 56 -156 117 -347z"/>
<path d="M14464 15688 l-57 -71 30 -26 c16 -14 94 -80 171 -146 78 -65 142
-122 142 -125 -1 -3 -144 -164 -320 -359 l-318 -354 96 -94 97 -93 337 343
338 342 160 -162 159 -162 72 67 72 68 -234 235 c-129 129 -286 280 -349 336
-163 142 -322 273 -330 273 -4 0 -34 -32 -66 -72z"/>
<path d="M3658 14802 c-24 -26 -77 -87 -117 -135 l-74 -88 58 -127 c88 -193
233 -479 334 -661 119 -213 195 -340 202 -341 3 0 43 52 88 115 l82 115 -65
119 c-36 65 -66 123 -66 129 0 13 108 145 251 308 l98 111 133 -47 133 -47
102 101 c81 79 99 102 88 109 -77 43 -622 226 -882 297 -103 29 -218 60 -255
70 l-67 18 -43 -46z m365 -324 c120 -33 216 -65 215 -69 -4 -10 -241 -289
-246 -289 -4 0 -178 358 -193 398 -5 12 -5 22 -1 22 4 0 105 -28 225 -62z"/>
<path d="M15310 14523 c-287 -245 -389 -345 -420 -408 -71 -146 -43 -297 92
-501 90 -137 201 -250 288 -295 60 -32 72 -34 160 -34 93 0 97 1 194 48 73 35
562 322 674 396 14 8 3 29 -122 223 l-36 57 -313 -206 c-355 -234 -417 -268
-476 -258 -82 14 -171 99 -225 215 -44 95 -32 182 35 249 19 18 166 137 326
263 201 158 290 234 285 243 -12 21 -187 234 -192 234 -3 0 -124 -101 -270
-226z"/>
<path d="M15915 14663 c-38 -30 -70 -58 -70 -63 0 -18 151 -209 162 -205 21 7
142 99 143 108 0 8 -147 204 -159 211 -3 2 -37 -21 -76 -51z"/>
<path d="M16193 14287 c-40 -29 -73 -56 -73 -60 0 -11 139 -217 147 -217 12 0
153 95 153 103 0 10 -144 227 -150 226 -3 0 -38 -24 -77 -52z"/>
<path d="M3009 13947 c-37 -56 -89 -138 -116 -182 l-50 -80 18 -125 c23 -158
63 -373 94 -515 14 -60 25 -115 25 -122 0 -6 -97 35 -216 93 -118 57 -218 104
-222 104 -7 -1 -135 -270 -136 -286 -1 -4 235 -112 524 -239 l525 -232 58 120
c31 65 57 124 57 129 0 5 -69 43 -154 83 l-153 74 -23 108 c-35 163 -38 183
-30 188 13 8 327 44 490 57 l159 11 95 146 c52 80 93 148 91 150 -14 13 -596
-47 -800 -83 -44 -8 -83 -11 -86 -8 -13 15 -68 503 -70 619 -1 103 -8 102 -80
-10z"/>
<path d="M15990 13162 c-272 -147 -501 -271 -507 -275 -9 -6 3 -40 48 -128 52
-106 62 -119 80 -114 11 4 107 49 212 101 106 52 196 94 200 94 5 0 25 -35 45
-77 70 -150 53 -219 -132 -536 l-96 -165 53 -157 53 -157 114 168 c133 197
177 286 194 385 l12 72 29 -49 c41 -70 131 -162 190 -192 41 -22 64 -26 125
-26 117 0 194 48 253 158 19 35 22 57 22 151 0 130 -20 203 -117 430 -62 145
-217 469 -259 542 l-25 41 -494 -266z m524 -224 c30 -62 74 -165 100 -229 54
-135 59 -187 23 -240 -29 -43 -60 -59 -116 -59 -40 0 -49 5 -90 48 -37 38 -64
88 -140 255 -51 115 -90 211 -87 215 9 8 238 120 249 121 5 1 32 -50 61 -111z"/>
<path d="M2907 11548 c-2 -13 -25 -102 -50 -198 -25 -96 -60 -245 -77 -330
-17 -85 -33 -156 -34 -158 -2 -1 -212 36 -467 82 -255 47 -464 84 -465 83 -2
-2 -14 -74 -49 -293 -6 -37 -26 -32 245 -69 102 -13 334 -45 515 -70 182 -25
339 -46 349 -48 18 -2 22 13 42 143 31 196 86 454 140 656 24 92 41 171 37
175 -8 8 -152 49 -170 49 -6 0 -13 -10 -16 -22z"/>
<path d="M17105 11034 c-93 -18 -228 -45 -300 -58 -486 -92 -621 -119 -627
-125 -5 -4 3 -74 17 -156 13 -83 33 -220 44 -306 26 -205 46 -289 88 -379 63
-133 193 -235 348 -275 77 -20 260 -19 344 0 189 45 331 194 372 390 26 127
10 344 -52 725 -34 212 -36 220 -52 219 -7 0 -88 -16 -182 -35z m68 -361 c35
-229 35 -422 -1 -489 -57 -110 -170 -158 -372 -158 -106 0 -134 4 -182 23 -72
28 -127 88 -151 164 -21 68 -62 377 -50 387 4 4 107 21 228 39 121 18 272 41
335 51 63 10 131 18 151 19 35 1 37 -1 42 -36z"/>
<path d="M1705 10318 c-11 -54 -20 -301 -10 -303 5 -2 134 -8 285 -15 524 -21
584 -31 634 -107 47 -70 58 -214 25 -323 -17 -55 -70 -114 -121 -134 -42 -17
-316 -32 -692 -37 l-149 -2 7 -161 c4 -88 8 -161 10 -163 7 -7 731 48 798 61
108 21 170 50 222 106 96 103 126 198 133 425 6 194 -7 295 -52 390 -62 129
-149 187 -325 214 -65 10 -700 71 -739 71 -13 0 -22 -8 -26 -22z"/>
<path d="M16290 9455 c-2 -193 -43 -660 -79 -890 -10 -66 -18 -121 -17 -122 4
-5 181 -32 185 -28 13 14 68 441 87 678 l6 88 87 -6 c47 -3 119 -8 159 -11
l74 -6 -6 -46 c-3 -26 -8 -87 -11 -137 -7 -98 -52 -474 -61 -511 -7 -26 -5
-27 111 -43 38 -6 71 -9 73 -7 11 12 64 443 78 638 l6 98 122 -6 c66 -4 124
-9 128 -13 13 -13 -40 -536 -76 -746 -15 -86 -27 -75 102 -96 39 -7 74 -10 76
-8 7 7 56 370 71 524 17 179 35 465 35 570 l0 75 -222 1 c-123 1 -382 4 -576
8 -232 4 -352 3 -352 -4z"/>
<path d="M2507 8869 c-56 -13 -90 -33 -129 -77 -39 -43 -78 -135 -78 -182 0
-17 -4 -30 -10 -30 -5 0 -10 4 -10 9 0 20 -87 104 -133 127 -95 48 -208 29
-271 -47 -77 -91 -105 -209 -87 -365 23 -194 162 -814 183 -814 5 0 228 61
496 136 268 75 512 143 542 151 30 8 58 17 61 19 4 2 -6 52 -22 111 -16 60
-58 243 -93 409 -71 332 -91 386 -168 461 -76 74 -196 113 -281 92z m174 -338
c31 -34 41 -58 58 -134 51 -221 80 -372 73 -378 -9 -8 -283 -71 -288 -67 -6 6
-45 190 -65 303 -24 138 -24 189 1 242 26 59 71 85 135 80 43 -4 54 -10 86
-46z m-513 -101 c22 -13 42 -39 57 -73 22 -48 112 -444 103 -453 -9 -9 -249
-61 -253 -55 -6 11 -53 221 -70 318 -28 162 -15 236 48 267 43 21 76 20 115
-4z"/>
<path d="M16145 8198 c-16 -47 -53 -243 -47 -249 4 -3 104 -30 222 -59 118
-29 219 -57 225 -61 13 -12 -30 -154 -61 -201 -13 -21 -43 -50 -67 -65 -53
-34 -236 -108 -387 -158 l-116 -38 -56 -148 c-30 -82 -53 -149 -49 -149 13 0
303 80 363 101 90 30 156 64 211 111 27 22 50 39 51 37 2 -2 0 -35 -4 -74 -19
-172 33 -295 152 -360 46 -26 63 -30 133 -30 67 0 88 5 130 27 122 64 195 194
290 517 52 179 148 571 141 578 -1 1 -157 34 -347 73 -189 39 -438 91 -553
116 -236 50 -225 48 -231 32z m738 -449 c67 -17 125 -33 129 -37 4 -4 1 -30
-7 -57 -105 -379 -127 -433 -184 -472 -81 -55 -191 -2 -208 100 -4 28 56 285
113 480 7 23 15 22 157 -14z"/>
<path d="M3115 7496 c-393 -127 -1032 -340 -1038 -345 -10 -10 85 -281 98
-281 6 0 154 53 330 119 176 65 330 121 342 125 18 6 3 -25 -76 -156 -107
-177 -216 -377 -306 -558 l-57 -116 71 -142 72 -143 212 109 c117 60 346 178
510 262 163 83 297 156 297 161 0 5 -25 59 -55 119 l-55 109 -57 -26 c-31 -15
-179 -83 -328 -153 -148 -70 -271 -126 -273 -125 -12 10 222 428 365 652 l91
141 -47 131 c-25 72 -48 131 -51 130 -3 0 -23 -6 -45 -13z"/>
<path d="M15704 6843 c-47 -103 -67 -153 -63 -157 2 -1 149 -72 327 -156 177
-84 319 -157 315 -160 -7 -6 -168 -39 -403 -81 -30 -6 -153 -22 -272 -37
l-218 -27 -69 -115 c-38 -63 -67 -118 -65 -121 8 -14 946 -601 961 -603 10 -1
43 43 91 122 41 68 72 125 71 126 -2 2 -148 86 -323 187 l-319 184 69 11 c38
7 134 22 214 34 231 34 633 119 650 136 19 19 130 277 123 284 -7 6 -987 428
-1035 446 -14 5 -25 -9 -54 -73z"/>
<path d="M3570 6268 c-176 -241 -454 -678 -576 -903 l-38 -71 92 -136 c51 -74
97 -140 104 -146 33 -26 987 168 1246 253 8 3 -20 45 -74 112 -48 60 -89 111
-93 115 -3 3 -67 -8 -141 -27 -101 -24 -138 -30 -147 -21 -20 19 -172 236
-240 344 l-66 103 80 118 81 117 -73 128 -73 128 -82 -114z m22 -665 c36 -54
84 -124 107 -155 23 -31 38 -59 33 -62 -6 -4 -137 -29 -397 -75 -27 -5 -52 -8
-53 -6 -8 7 226 395 238 395 4 0 36 -44 72 -97z"/>
<path d="M15034 5673 c-137 -195 -369 -481 -524 -646 -40 -43 -71 -79 -69 -80
3 -1 35 -31 73 -67 l68 -65 36 41 c173 194 266 302 353 411 56 71 105 129 109
131 7 2 202 -140 239 -174 12 -11 5 -23 -40 -81 -95 -120 -241 -295 -326 -389
l-82 -91 70 -69 70 -69 32 36 c182 208 286 331 357 422 46 59 87 107 92 107 6
0 154 -109 192 -141 13 -11 -230 -313 -438 -542 l-89 -98 68 -62 c38 -34 71
-62 74 -62 19 0 316 344 478 552 114 146 253 336 253 346 0 5 -935 657 -943
657 -3 0 -27 -30 -53 -67z"/>
<path d="M4260 4720 c-190 -175 -350 -319 -356 -319 -10 -1 -105 103 -253 276
l-53 63 -74 -61 -74 -61 29 -36 c130 -164 466 -526 633 -683 179 -168 218
-202 222 -198 2 2 31 35 64 73 l60 68 -66 61 c-37 34 -113 107 -170 162 l-103
100 343 336 343 336 -95 99 c-52 55 -97 100 -100 101 -3 1 -160 -142 -350
-317z"/>
<path d="M14185 4583 c-235 -52 -486 -239 -655 -488 -52 -77 -110 -187 -110
-208 0 -11 224 -351 251 -381 16 -18 534 367 522 388 -13 21 -106 131 -114
134 -4 2 -52 -32 -106 -75 -54 -43 -112 -88 -130 -101 l-32 -22 -46 60 -46 60
38 71 c74 137 196 255 313 301 40 16 78 22 140 22 77 1 92 -2 153 -32 79 -39
179 -134 220 -209 80 -148 45 -297 -103 -443 -85 -84 -148 -122 -239 -146 -63
-16 -133 -10 -180 15 -14 8 -39 -11 -132 -99 -77 -73 -111 -111 -104 -118 6
-6 35 -23 65 -38 71 -36 203 -45 298 -20 171 44 402 201 533 365 140 173 195
365 154 540 -46 192 -218 361 -425 416 -51 14 -218 19 -265 8z"/>
<path d="M5104 4299 c-73 -28 -128 -79 -165 -154 -29 -59 -31 -71 -27 -133 9
-127 67 -221 278 -452 146 -160 176 -200 186 -247 5 -26 1 -37 -21 -59 -23
-23 -32 -26 -72 -21 -111 12 -303 150 -339 242 -11 29 -15 58 -11 82 4 21 8
46 9 55 2 12 -34 45 -112 104 -63 47 -120 88 -125 90 -6 3 -22 -15 -35 -38
-22 -37 -25 -55 -25 -138 0 -135 32 -198 169 -336 214 -214 477 -334 650 -295
162 36 238 173 188 338 -27 87 -90 177 -222 319 -192 204 -230 258 -230 322 0
46 48 84 114 90 46 4 65 -1 121 -26 132 -62 230 -161 256 -256 11 -39 8 -113
-6 -148 -6 -14 17 -29 123 -82 l129 -65 12 37 c37 113 21 251 -39 357 -89 156
-377 372 -560 420 -78 21 -184 18 -246 -6z"/>
<path d="M12990 3798 c-63 -38 -114 -75 -112 -81 5 -19 543 -971 556 -983 15
-16 288 145 281 165 -9 23 -600 971 -605 970 -3 0 -57 -32 -120 -71z"/>
<path d="M6286 3687 c-35 -57 -546 -979 -546 -985 0 -5 66 -42 148 -84 l147
-77 259 517 c142 284 255 517 250 519 -5 2 -62 32 -127 67 -117 64 -118 64
-131 43z"/>
<path d="M14797 3500 c-81 -21 -204 -104 -264 -178 -65 -81 -94 -175 -79 -254
12 -64 18 -65 90 -13 36 27 66 51 66 53 0 2 -5 12 -11 24 -28 51 32 147 130
210 51 32 113 37 148 13 20 -14 25 -12 80 36 32 28 59 54 61 58 1 4 -16 17
-38 30 -46 26 -126 35 -183 21z"/>
<path d="M11040 3067 c-147 -46 -243 -113 -295 -208 -24 -44 -30 -69 -33 -138
l-5 -84 44 6 c24 4 81 12 127 18 l82 11 -6 33 c-14 79 39 158 125 184 90 27
161 2 198 -69 56 -105 22 -185 -214 -498 -156 -208 -207 -307 -220 -434 l-6
-61 44 7 c226 35 947 251 936 280 -2 6 -17 48 -33 93 -16 46 -33 83 -39 83 -5
0 -73 -22 -150 -49 -181 -63 -363 -116 -371 -108 -9 8 30 70 141 222 52 72
108 157 125 191 108 219 62 420 -117 509 -50 25 -71 29 -158 32 -82 2 -113 -1
-175 -20z"/>
<path d="M8176 3031 c-62 -65 -242 -131 -357 -131 l-46 0 -32 -86 c-17 -47
-31 -90 -31 -95 0 -22 215 -1 308 30 28 10 52 16 52 14 0 -2 -52 -177 -115
-388 -63 -211 -115 -390 -115 -398 0 -10 42 -25 136 -51 75 -20 138 -35 139
-34 4 5 275 1103 275 1114 0 10 -140 54 -172 54 -8 0 -27 -13 -42 -29z"/>
<path d="M10290 2889 c-74 -11 -207 -25 -295 -32 l-160 -12 -8 -50 c-15 -99
-68 -392 -84 -467 -9 -43 -14 -80 -11 -83 3 -4 49 -11 102 -16 l97 -10 49 36
c117 86 258 88 337 3 46 -49 68 -176 42 -245 -25 -68 -110 -123 -189 -123 -78
0 -171 59 -186 118 -4 14 -14 22 -28 22 -39 -1 -247 -28 -252 -33 -3 -2 5 -30
16 -61 38 -100 146 -187 271 -215 75 -18 237 -13 323 9 103 26 164 61 231 131
82 86 110 152 109 260 0 80 -3 93 -37 162 -90 181 -303 267 -517 208 -36 -10
-72 -21 -81 -25 -14 -6 -14 2 -3 83 7 50 15 94 18 99 3 5 45 12 93 15 86 6
363 43 369 50 2 1 -4 47 -13 100 -15 88 -18 97 -37 96 -12 -1 -82 -10 -156
-20z"/>
<path d="M8907 2866 c-117 -48 -186 -116 -228 -224 -17 -44 -22 -79 -23 -152
0 -109 17 -156 85 -234 108 -123 306 -162 442 -89 65 36 66 35 42 -65 -24
-101 -60 -158 -118 -189 -38 -19 -127 -18 -167 2 -35 18 -70 69 -70 102 0 25
-16 28 -177 37 l-93 6 0 -29 c0 -43 26 -119 55 -161 106 -153 407 -205 612
-105 190 93 260 255 251 579 -4 141 -8 170 -31 239 -40 114 -89 181 -182 245
-96 65 -287 83 -398 38z m251 -184 c95 -68 111 -265 28 -348 -64 -64 -160 -65
-231 -3 -44 39 -59 85 -53 170 6 84 40 155 88 187 44 30 121 27 168 -6z"/>
<path d="M13632 2717 c-67 -41 -125 -76 -128 -80 -8 -8 87 -177 100 -177 14 0
266 148 266 156 0 11 -102 174 -109 174 -3 0 -61 -33 -129 -73z"/>
<path d="M5683 2588 c-6 -7 -29 -47 -52 -90 l-41 -76 82 -45 c46 -25 111 -59
145 -76 l63 -31 45 90 c25 49 45 92 45 94 0 5 -264 146 -273 146 -2 0 -9 -6
-14 -12z"/>
</g>
</svg>
